<svg width="190" height="110" viewBox="0 0 190 110" fill="none" xmlns="http://www.w3.org/2000/svg">
<g clip-path="url(#clip0_177_172)">
<path d="M149.061 17.1816C149.061 17.1816 144.878 17.6284 144.608 23.7665C144.383 28.8818 143.923 31.7323 146.12 32.7993C146.905 33.1806 147.827 33.2134 148.666 32.9533L157.628 30.1607C157.628 30.1607 157.762 20.9545 154.659 18.7166C151.556 16.4786 149.061 17.1816 149.061 17.1816Z" fill="#36344E"/>
<path d="M154.001 31.2894L149.465 32.703V26.5149H153.58L154.001 31.2894Z" fill="#FAAFB2"/>
<path d="M140.136 66.4153C139.89 67.8329 138.892 68.8498 137.909 68.6861C136.923 68.5224 136.325 67.2397 136.571 65.8221C136.661 65.254 136.899 64.7166 137.262 64.2563L138.386 58.2627L141.444 58.8694L140.012 64.7128C140.201 65.2655 140.243 65.8491 140.136 66.4153Z" fill="#FAAFB2"/>
<path d="M150.52 106.269H146.273L143.808 84.7563H150.375L150.52 106.269Z" fill="#FAAFB2"/>
<path d="M142.135 109.726C141.688 109.726 141.29 109.717 140.991 109.69C139.863 109.592 138.786 108.802 138.246 108.342C138.004 108.136 137.925 107.804 138.051 107.519C138.142 107.315 138.323 107.163 138.548 107.101L141.53 106.294L146.358 103.207L146.413 103.299C146.433 103.334 146.907 104.143 147.065 104.69C147.126 104.898 147.11 105.071 147.018 105.206C146.955 105.299 146.866 105.353 146.795 105.383C146.882 105.47 147.156 105.645 148 105.772C149.233 105.957 149.489 104.748 149.502 104.698L149.51 104.657L149.546 104.634C150.132 104.276 150.493 104.114 150.617 104.149C150.694 104.17 150.824 104.209 151.174 107.502C151.209 107.606 151.454 108.363 151.288 109.089C151.107 109.879 147.471 109.607 146.744 109.543C146.724 109.545 144.003 109.728 142.137 109.728H142.135V109.726Z" fill="#36344E"/>
<path d="M160.117 106.269H155.868L153.405 84.7563H159.971L160.117 106.269Z" fill="#FAAFB2"/>
<path d="M151.733 109.726C151.286 109.726 150.887 109.717 150.589 109.69C149.461 109.592 148.384 108.802 147.843 108.342C147.601 108.136 147.522 107.804 147.648 107.519C147.74 107.315 147.92 107.163 148.146 107.101L151.127 106.294L155.956 103.207L156.01 103.299C156.031 103.334 156.504 104.143 156.663 104.69C156.724 104.898 156.707 105.071 156.616 105.206C156.553 105.299 156.464 105.353 156.392 105.383C156.48 105.47 156.754 105.645 157.597 105.772C158.831 105.957 159.087 104.748 159.099 104.698L159.107 104.657L159.144 104.634C159.731 104.276 160.091 104.114 160.215 104.149C160.292 104.17 160.422 104.209 160.772 107.502C160.806 107.606 161.052 108.363 160.885 109.089C160.705 109.879 157.069 109.607 156.342 109.543C156.321 109.545 153.6 109.728 151.735 109.728H151.733V109.726Z" fill="#36344E"/>
<path d="M161.339 53.4303H140.699L148.118 30.2878H156.348L161.339 53.4303Z" fill="#DFDFE0"/>
<path d="M149.416 30.2899C149.416 30.2899 144.289 30.1628 143.751 31.4416C143.212 32.7204 136.87 63.1527 136.87 63.1527H141.052L149.416 30.2918V30.2899Z" fill="#DFDFE0"/>
<path d="M150.026 28.2271C152.522 28.2271 154.545 26.3094 154.545 23.9438C154.545 21.5781 152.522 19.6604 150.026 19.6604C147.53 19.6604 145.506 21.5781 145.506 23.9438C145.506 26.3094 147.53 28.2271 150.026 28.2271Z" fill="#FAAFB2"/>
<path d="M148.79 18.7803C148.79 18.7803 146.303 28.3524 149.069 32.8264L145.173 32.0425C145.173 32.0425 143.663 21.5672 146.699 19.6624L148.79 18.7803Z" fill="#36344E"/>
<path d="M157.049 53.4304H143.503L136.091 82.2603C135.955 83.4775 136.77 84.6138 138.018 84.9316C142.084 85.9639 151.843 87.4258 166.61 83.3523C168.03 82.9614 168.837 81.54 168.392 80.2014L157.049 53.4304Z" fill="#36344E"/>
<path d="M151.572 30.2878L155.785 30.1125C157.61 30.2435 159.26 31.1834 160.237 32.6491C163.214 37.1096 168.784 46.5103 163.812 47.7988C157.256 49.4955 154.08 40.0486 154.08 40.0486L151.572 30.2878Z" fill="#DFDFE0"/>
<path d="M150.128 33.0882C149.262 31.9095 149.232 30.5208 150.057 29.9873C150.884 29.4538 152.255 29.9796 153.121 31.1583C153.475 31.6244 153.698 32.1675 153.775 32.7376L157.374 37.7798L154.735 39.3649L151.467 34.2264C150.924 33.9548 150.465 33.5639 150.128 33.0882Z" fill="#FAAFB2"/>
<path d="M152.257 37.1656L155.23 34.5732L161.109 39.7599L155.643 43.3018L152.257 37.1656Z" fill="#DFDFE0"/>
<path d="M6.58613 24.3887H99.9137C103.551 24.3887 106.5 27.1833 106.5 30.6307C106.5 34.0782 103.551 36.8728 99.9137 36.8728H6.58613C2.94862 36.8728 0 34.0782 0 30.6307C0 27.1833 2.94862 24.3887 6.58613 24.3887Z" fill="#5382AD"/>
<path d="M41.3154 109.771C41.3154 109.898 41.4231 110 41.5573 110H189.758C189.893 110 190 109.898 190 109.771C190 109.644 189.893 109.542 189.758 109.542H41.5573C41.4231 109.542 41.3154 109.644 41.3154 109.771Z" fill="#484565"/>
<path d="M86.2884 18.0945H105.665C106.128 18.0945 106.502 18.4489 106.502 18.8861C106.502 19.3233 106.128 19.6776 105.665 19.6776H86.2884C85.8251 19.6776 85.4512 19.3233 85.4512 18.8861C85.4512 18.4489 85.8251 18.0945 86.2884 18.0945Z" fill="#DFDFE0"/>
<path d="M0.837237 0H20.2136C20.6769 0 21.0508 0.354379 21.0508 0.791575C21.0508 1.22877 20.6769 1.58315 20.2136 1.58315H0.837237C0.373912 1.58508 0 1.2307 0 0.791575C0 0.354379 0.373912 0 0.837237 0Z" fill="#DFDFE0"/>
<path d="M0.837237 6.91626H57.7104C58.1738 6.91626 58.5477 7.27064 58.5477 7.70976C58.5477 8.14696 58.1738 8.50134 57.7104 8.50134H0.837237C0.373912 8.50134 0 8.14696 0 7.70976C0 7.27256 0.373912 6.91626 0.837237 6.91626Z" fill="#DFDFE0"/>
<path d="M47.5049 50.2448C47.5049 54.3972 51.057 57.7638 55.4383 57.7638C56.7653 57.7638 58.0151 57.4557 59.1124 56.9106L66.7999 68.4664C67.2714 69.1733 68.2773 69.3505 68.9845 68.8497C69.6449 68.3817 69.7872 67.4996 69.3056 66.864L60.8499 55.7416C62.4004 54.3683 63.3717 52.4135 63.3717 50.2448C63.3717 46.0924 59.8196 42.7258 55.4383 42.7258C51.057 42.7258 47.5049 46.0924 47.5049 50.2448ZM48.5941 50.2448C48.5941 46.6625 51.6586 43.7562 55.4403 43.7562C59.2221 43.7562 62.2866 46.6606 62.2866 50.2448C62.2866 53.8271 59.2221 56.7334 55.4403 56.7334C51.6606 56.7334 48.5941 53.8291 48.5941 50.2448Z" fill="#484662"/>
</g>
<defs>
<clipPath id="clip0_177_172">
<rect width="190" height="110" fill="white"/>
</clipPath>
</defs>
</svg>
