<svg width="192" height="110" viewBox="0 0 192 110" fill="none" xmlns="http://www.w3.org/2000/svg">
<g clip-path="url(#clip0_177_296)">
<path d="M149.98 16.5265H102.899V15.364H81.5509V16.5265H34.2762C33.4315 16.5265 32.6214 16.9285 32.0242 17.644C31.4269 18.3596 31.0913 19.3301 31.0913 20.342V97.5744C31.0913 98.5864 31.4269 99.5569 32.0242 100.272C32.6214 100.988 33.4315 101.39 34.2762 101.39H149.98C150.825 101.39 151.635 100.988 152.232 100.272C152.829 99.5569 153.165 98.5864 153.165 97.5744V20.3416C153.165 19.3297 152.829 18.3593 152.232 17.6439C151.635 16.9284 150.824 16.5265 149.98 16.5265Z" fill="#3F3D56"/>
<path d="M148.895 23.2688H35.3613V99.9945H148.895V23.2688Z" fill="#E6E6E6"/>
<path d="M144.119 27.3264H40.1763V93.6461H144.119V27.3264Z" fill="white"/>
<path d="M92.0312 21.1766C92.6743 21.1766 93.1957 20.552 93.1957 19.7815C93.1957 19.0111 92.6743 18.3865 92.0312 18.3865C91.3881 18.3865 90.8667 19.0111 90.8667 19.7815C90.8667 20.552 91.3881 21.1766 92.0312 21.1766Z" fill="#5382AD"/>
<path d="M156.352 98.5995H145.272V97.6431C145.272 97.5928 145.255 97.5445 145.226 97.5089C145.196 97.4734 145.156 97.4534 145.114 97.4534H141.315C141.273 97.4534 141.233 97.4734 141.203 97.5089C141.173 97.5445 141.157 97.5928 141.157 97.6431V98.5995H138.782V97.6431C138.782 97.5928 138.766 97.5445 138.736 97.5089C138.706 97.4734 138.666 97.4534 138.624 97.4534H134.825C134.783 97.4534 134.743 97.4734 134.713 97.5089C134.683 97.5445 134.667 97.5928 134.667 97.6431V98.5995H132.293V97.6431C132.293 97.5928 132.276 97.5445 132.246 97.5089C132.216 97.4734 132.176 97.4534 132.134 97.4534H128.335C128.293 97.4534 128.253 97.4734 128.223 97.5089C128.194 97.5445 128.177 97.5928 128.177 97.6431V98.5995H125.803V97.6431C125.803 97.5928 125.786 97.5445 125.756 97.5089C125.727 97.4734 125.686 97.4534 125.644 97.4534H121.846C121.804 97.4534 121.763 97.4734 121.734 97.5089C121.704 97.5445 121.687 97.5928 121.687 97.6431V98.5995H119.313V97.6431C119.313 97.5928 119.296 97.5445 119.266 97.5089C119.237 97.4734 119.197 97.4534 119.155 97.4534H115.356C115.314 97.4534 115.274 97.4734 115.244 97.5089C115.214 97.5445 115.197 97.5928 115.197 97.6431V98.5995H112.823V97.6431C112.823 97.5928 112.806 97.5445 112.777 97.5089C112.747 97.4734 112.707 97.4534 112.665 97.4534H108.867C108.825 97.4534 108.784 97.4734 108.755 97.5089C108.725 97.5445 108.708 97.5928 108.708 97.6431V98.5995H106.333V97.6431C106.333 97.5928 106.317 97.5445 106.287 97.5089C106.257 97.4734 106.217 97.4534 106.175 97.4534H76.4169C76.3749 97.4534 76.3346 97.4734 76.3049 97.5089C76.2752 97.5445 76.2586 97.5928 76.2586 97.6431V98.5995H73.8843V97.6431C73.8843 97.5928 73.8677 97.5445 73.838 97.5089C73.8083 97.4734 73.768 97.4534 73.726 97.4534H69.9271C69.8851 97.4534 69.8448 97.4734 69.8151 97.5089C69.7854 97.5445 69.7687 97.5928 69.7687 97.6431V98.5995H67.3945V97.6431C67.3945 97.5928 67.3778 97.5445 67.3481 97.5089C67.3184 97.4734 67.2782 97.4534 67.2362 97.4534H63.4374C63.3954 97.4534 63.3552 97.4734 63.3255 97.5089C63.2958 97.5445 63.2791 97.5928 63.2791 97.6431V98.5995H60.9047V97.6431C60.9047 97.5928 60.888 97.5445 60.8583 97.5089C60.8286 97.4734 60.7884 97.4534 60.7464 97.4534H56.9476C56.9056 97.4534 56.8654 97.4734 56.8357 97.5089C56.806 97.5445 56.7893 97.5928 56.7893 97.6431V98.5995H54.4154V97.6431C54.4154 97.5928 54.3987 97.5445 54.3691 97.5089C54.3394 97.4734 54.2991 97.4534 54.2571 97.4534H50.4578C50.4158 97.4534 50.3755 97.4734 50.3458 97.5089C50.3161 97.5445 50.2995 97.5928 50.2995 97.6431V98.5995H47.9252V97.6431C47.9252 97.5928 47.9086 97.5445 47.8789 97.5089C47.8492 97.4734 47.8089 97.4534 47.7669 97.4534H43.968C43.926 97.4534 43.8857 97.4734 43.856 97.5089C43.8263 97.5445 43.8096 97.5928 43.8096 97.6431V98.5995H41.4354V97.6431C41.4354 97.5928 41.4188 97.5445 41.3891 97.5089C41.3594 97.4734 41.3191 97.4534 41.2771 97.4534H37.4774C37.4355 97.4534 37.3952 97.4734 37.3655 97.5089C37.3358 97.5445 37.3191 97.5928 37.3191 97.6431V98.5995H30.0387C29.0311 98.5995 28.0649 99.079 27.3524 99.9326C26.64 100.786 26.2397 101.944 26.2397 103.151V105.208C26.2397 106.416 26.64 107.573 27.3524 108.427C28.0649 109.28 29.0311 109.76 30.0387 109.76H156.352C157.36 109.76 158.326 109.28 159.038 108.427C159.751 107.573 160.151 106.416 160.151 105.209V103.151C160.151 101.944 159.751 100.786 159.038 99.9328C158.326 99.0793 157.36 98.5998 156.352 98.5998V98.5995Z" fill="#3F3D56"/>
<path d="M115.13 31.9778H69.1655V89.8614H115.13V31.9778Z" fill="#E6E6E6"/>
<path d="M192 109.566H0.000488281V110H192V109.566Z" fill="#E6E6E6"/>
<path d="M173.354 94.4202C175.955 97.7644 176.09 102.68 176.09 102.68C176.09 102.68 172.006 102.173 169.405 98.8289C166.803 95.4846 166.669 90.5691 166.669 90.5691C166.669 90.5691 170.752 91.076 173.354 94.4202Z" fill="#5382AD"/>
<path d="M181.544 99.6404C178.752 102.757 174.649 102.918 174.649 102.918C174.649 102.918 175.072 98.0261 177.864 94.9095C180.655 91.7929 184.758 91.6318 184.758 91.6318C184.758 91.6318 184.335 96.5237 181.544 99.6404Z" fill="#5382AD"/>
<path d="M180.849 109.566H170.582C170.385 109.566 170.192 109.5 170.025 109.375C169.858 109.25 169.724 109.071 169.637 108.858L167.402 103.353C167.324 103.162 167.288 102.949 167.297 102.736C167.307 102.523 167.361 102.316 167.456 102.135C167.55 101.955 167.681 101.805 167.837 101.702C167.993 101.599 168.168 101.545 168.347 101.545H183.085C183.263 101.545 183.438 101.599 183.594 101.702C183.75 101.805 183.881 101.955 183.976 102.135C184.07 102.316 184.125 102.523 184.134 102.736C184.144 102.949 184.108 103.162 184.03 103.353L181.794 108.859C181.708 109.071 181.574 109.25 181.407 109.375C181.24 109.5 181.047 109.567 180.85 109.566L180.849 109.566Z" fill="#E5E5E5"/>
<path d="M11.0316 94.4202C13.6331 97.7644 13.7675 102.68 13.7675 102.68C13.7675 102.68 9.68414 102.173 7.08263 98.8289C4.48113 95.4846 4.34668 90.5691 4.34668 90.5691C4.34668 90.5691 8.43007 91.076 11.0316 94.4202Z" fill="#E5E5E5"/>
<path d="M16.8988 109.566H6.63124C6.43424 109.566 6.24118 109.5 6.07416 109.375C5.90715 109.25 5.77291 109.071 5.68681 108.858L3.45139 103.353C3.37333 103.162 3.33729 102.949 3.34667 102.736C3.35605 102.523 3.41054 102.316 3.505 102.135C3.59947 101.955 3.73081 101.805 3.88665 101.702C4.04249 101.599 4.21772 101.545 4.39583 101.545H19.1344C19.3125 101.545 19.4877 101.599 19.6436 101.702C19.7994 101.805 19.9308 101.955 20.0252 102.135C20.1197 102.316 20.1742 102.523 20.1836 102.736C20.1929 102.949 20.1569 103.162 20.0788 103.353L17.8434 108.859C17.7573 109.071 17.6231 109.25 17.4561 109.375C17.289 109.5 17.096 109.567 16.899 109.566L16.8988 109.566Z" fill="#E5E5E5"/>
<path d="M97.6937 48.3636C101.067 48.3636 103.802 45.0871 103.802 41.0453C103.802 37.0036 101.067 33.7271 97.6937 33.7271C94.3199 33.7271 91.585 37.0036 91.585 41.0453C91.585 45.0871 94.3199 48.3636 97.6937 48.3636Z" fill="#A0616A"/>
<path d="M83.6382 89.9807L87.5831 60.2287C87.7929 58.6468 88.2814 57.1366 89.0163 55.7986C89.7511 54.4605 90.7153 53.3253 91.8449 52.4684C92.9744 51.6115 94.2433 51.0526 95.5672 50.8288C96.891 50.6051 98.2395 50.7217 99.5228 51.1709C101.767 51.9483 103.688 53.7 104.911 56.0836C106.135 58.4673 106.572 61.3118 106.139 64.0614L102.013 90.6313L83.6382 89.9807Z" fill="#5382AD"/>
<path d="M99.38 95.304C99.6851 95.0626 99.9423 94.744 100.134 94.3706C100.325 93.9973 100.445 93.5782 100.487 93.143C100.528 92.7078 100.489 92.267 100.373 91.8517C100.257 91.4364 100.066 91.0566 99.8143 90.7392L103.892 81.2786L99.2998 81.8656L96.1314 90.7598C95.716 91.3026 95.481 92.0089 95.4706 92.7451C95.4602 93.4814 95.6752 94.1968 96.075 94.7561C96.4748 95.3155 97.0318 95.68 97.6407 95.781C98.2496 95.882 98.8682 95.7124 99.3798 95.3042L99.38 95.304Z" fill="#A0616A"/>
<path d="M100.253 89.0705C100.028 89.0323 99.8174 88.9127 99.65 88.7275L98.0897 87.0004C97.9212 86.8129 97.8048 86.5679 97.7563 86.2986C97.7077 86.0293 97.7294 85.7486 97.8183 85.4945L100.937 76.6396L100.494 59.1434C100.623 58.0083 101.124 56.9812 101.885 56.2881C102.646 55.5949 103.606 55.2925 104.554 55.4474C105.501 55.6022 106.359 56.2016 106.937 57.1137C107.516 58.0258 107.768 59.1759 107.639 60.311L108.395 71.3096C108.625 74.6476 107.835 77.9721 106.173 80.6646L101.31 88.5404C101.216 88.6918 101.097 88.8179 100.96 88.9105C100.823 89.0031 100.671 89.0601 100.515 89.0779C100.428 89.0878 100.34 89.0853 100.253 89.0705Z" fill="#5382AD"/>
<path d="M62.5151 37.0581C62.5817 37.4888 62.7263 37.8967 62.9387 38.2533C63.1511 38.6098 63.4262 38.9062 63.7445 39.1216C64.0629 39.337 64.4168 39.4661 64.7813 39.4999C65.1459 39.5337 65.5122 39.4714 65.8544 39.3173L71.5366 47.5047L72.8757 42.2093L67.2746 35.2461C67.0191 34.5767 66.5678 34.0424 66.0061 33.7442C65.4443 33.446 64.8108 33.4044 64.2252 33.6274C63.6396 33.8503 63.1424 34.3224 62.8274 34.9544C62.5124 35.5864 62.4012 36.3347 62.5151 37.0581Z" fill="#A0616A"/>
<path d="M66.9661 40.4519C67.0834 40.2179 67.2574 40.0324 67.465 39.9199L69.4013 38.8721C69.6111 38.7593 69.8448 38.7264 70.0708 38.7778C70.2968 38.8293 70.5041 38.9626 70.6648 39.1598L76.2554 46.0523L89.8767 52.3859C90.2841 52.6754 90.6399 53.0583 90.9237 53.5126C91.2075 53.967 91.4138 54.4838 91.5309 55.0337C91.6479 55.5836 91.6733 56.1557 91.6057 56.7174C91.5381 57.2791 91.3787 57.8193 91.1368 58.3071C90.8948 58.795 90.575 59.2209 90.1956 59.5607C89.8162 59.9004 89.3846 60.1472 88.9255 60.2871C88.4664 60.4269 87.9889 60.457 87.5201 60.3756C87.0513 60.2942 86.6005 60.103 86.1934 59.8128L77.4445 56.3589C74.7889 55.311 72.5415 53.1433 71.1202 50.259L66.9625 41.8236C66.8826 41.6613 66.8321 41.4808 66.8143 41.2937C66.7965 41.1065 66.8118 40.917 66.8591 40.7374C66.8855 40.6376 66.9215 40.5418 66.9666 40.4521L66.9661 40.4519Z" fill="#5382AD"/>
<path opacity="0.1" d="M102.648 66.4216L102.4 75.9564L97.8179 85.4953L101.644 74.8659L102.648 66.4216Z" fill="black"/>
<path d="M93.5565 37.3772C94.1866 38.2706 95.2528 38.5226 96.2365 38.626C98.2342 38.8358 101.139 38.4959 103.091 37.9554C103.231 39.5734 102.851 41.3177 103.646 42.6486C104.019 41.0373 104.236 39.38 104.292 37.7094C104.316 36.994 104.307 36.2517 104.064 35.5939C103.821 34.9362 103.291 34.3779 102.68 34.3721C103.134 33.9599 103.665 33.6879 104.227 33.5799L102.294 32.4164L102.791 31.8059L99.2917 31.5494L100.305 30.7781C98.7798 30.5272 97.2367 30.4691 95.7012 30.6046C94.9883 30.6675 94.2427 30.7878 93.6651 31.2828C93.0874 31.7777 92.7536 32.7613 93.1122 33.488C92.6632 33.5763 92.2405 33.8005 91.884 34.1393C91.5275 34.4782 91.2492 34.9204 91.0753 35.4242C90.8178 36.2063 90.8413 37.0753 90.9208 37.9088C91.0526 39.242 91.3113 40.5527 91.6917 41.8154" fill="#2F2E41"/>
<path d="M119.671 19.0439L64.0078 34.4393C63.7344 34.5145 63.4474 34.4568 63.2095 34.2787C62.9716 34.1007 62.8025 33.8169 62.739 33.4896L59.5513 16.9479C59.4885 16.6204 59.5367 16.2764 59.6854 15.9915C59.834 15.7065 60.0709 15.5038 60.3441 15.4279L116.007 0.0324299C116.281 -0.0427638 116.568 0.0150039 116.806 0.193059C117.044 0.371115 117.213 0.654918 117.276 0.982221L120.464 17.5239C120.527 17.8514 120.478 18.1953 120.33 18.4803C120.181 18.7652 119.944 18.9679 119.671 19.0439Z" fill="white"/>
<path d="M119.671 19.0439L64.0078 34.4393C63.7344 34.5145 63.4474 34.4568 63.2095 34.2787C62.9716 34.1007 62.8025 33.8169 62.739 33.4896L59.5513 16.9479C59.4885 16.6204 59.5367 16.2764 59.6854 15.9915C59.834 15.7065 60.0709 15.5038 60.3441 15.4279L116.007 0.0324299C116.281 -0.0427638 116.568 0.0150039 116.806 0.193059C117.044 0.371115 117.213 0.654918 117.276 0.982221L120.464 17.5239C120.527 17.8514 120.478 18.1953 120.33 18.4803C120.181 18.7652 119.944 18.9679 119.671 19.0439ZM60.4393 15.9219C60.2754 15.9675 60.1332 16.0891 60.044 16.2601C59.9548 16.4311 59.9259 16.6375 59.9636 16.834L63.1513 33.3758C63.1893 33.5722 63.2908 33.7425 63.4336 33.8494C63.5763 33.9562 63.7486 33.9909 63.9127 33.9457L119.576 18.5502C119.74 18.5047 119.882 18.3831 119.971 18.2121C120.061 18.0411 120.089 17.8347 120.052 17.6381L116.864 1.09623C116.826 0.89979 116.724 0.729441 116.582 0.622582C116.439 0.515724 116.267 0.481091 116.103 0.526284L60.4393 15.9219Z" fill="#E6E6E6"/>
<path d="M79.7539 15.871C79.662 15.8961 79.575 15.9428 79.4981 16.0083C79.4212 16.0737 79.3558 16.1567 79.3057 16.2524C79.2555 16.3481 79.2216 16.4548 79.2059 16.5662C79.1901 16.6776 79.1929 16.7917 79.2139 16.9019C79.235 17.012 79.274 17.1161 79.3286 17.2083C79.3833 17.3004 79.4525 17.3787 79.5325 17.4387C79.6124 17.4988 79.7014 17.5394 79.7944 17.5582C79.8875 17.577 79.9827 17.5737 80.0746 17.5484L80.0771 17.5477L113.069 8.42291C113.254 8.37128 113.415 8.23364 113.515 8.04022C113.616 7.84679 113.649 7.61339 113.606 7.39126C113.563 7.16913 113.448 6.97643 113.287 6.85547C113.126 6.73451 112.931 6.69518 112.745 6.74612L79.7539 15.871Z" fill="#E6E6E6"/>
<path d="M80.7232 20.9014C80.6312 20.9266 80.5443 20.9733 80.4674 21.0387C80.3904 21.1041 80.3251 21.1871 80.2749 21.2828C80.2248 21.3786 80.1908 21.4852 80.1751 21.5966C80.1594 21.7081 80.1621 21.8221 80.1832 21.9323C80.2042 22.0425 80.2432 22.1466 80.2979 22.2387C80.3525 22.3308 80.4218 22.4091 80.5017 22.4692C80.5816 22.5292 80.6707 22.5698 80.7637 22.5886C80.8567 22.6075 80.9519 22.6041 81.0439 22.5789L81.0463 22.5782L95.2426 18.6518C95.4282 18.6007 95.5894 18.4635 95.6905 18.2702C95.7917 18.0769 95.8246 17.8434 95.7821 17.621C95.7396 17.3986 95.6251 17.2055 95.4638 17.0843C95.3025 16.963 95.1076 16.9234 94.9219 16.9743L94.9195 16.975L80.7232 20.9014Z" fill="#E6E6E6"/>
<path d="M70.7347 27.0205C73.1147 27.0205 75.0441 24.709 75.0441 21.8578C75.0441 19.0065 73.1147 16.6951 70.7347 16.6951C68.3547 16.6951 66.4253 19.0065 66.4253 21.8578C66.4253 24.709 68.3547 27.0205 70.7347 27.0205Z" fill="#5382AD"/>
<path d="M70.6137 24.8361C70.4727 24.8753 70.3248 24.8586 70.1924 24.7884L70.1841 24.784L68.4501 23.841C68.3696 23.7972 68.2971 23.735 68.2367 23.6576C68.1763 23.5803 68.1292 23.4895 68.0981 23.3904C68.067 23.2912 68.0526 23.1857 68.0556 23.0799C68.0585 22.9741 68.0789 22.87 68.1155 22.7736C68.1521 22.6772 68.2042 22.5904 68.2688 22.5182C68.3334 22.4459 68.4093 22.3896 68.4921 22.3525C68.5749 22.3154 68.663 22.2983 68.7513 22.302C68.8397 22.3057 68.9265 22.3303 69.0069 22.3742L70.1305 22.987L71.7068 18.8376C71.7806 18.6434 71.9158 18.4922 72.0827 18.4173C72.2495 18.3425 72.4344 18.3501 72.5966 18.4385L72.5871 18.4656L72.5971 18.4383C72.7591 18.527 72.8852 18.689 72.9477 18.8889C73.0101 19.0888 73.0038 19.3102 72.9301 19.5045L71.0763 24.3857C71.0333 24.4982 70.9693 24.5973 70.8891 24.6753C70.809 24.7533 70.715 24.8082 70.6144 24.8357L70.6137 24.8361Z" fill="white"/>
</g>
<defs>
<clipPath id="clip0_177_296">
<rect width="192" height="110" fill="white" transform="translate(0.000488281)"/>
</clipPath>
</defs>
</svg>
