<svg width="193" height="110" viewBox="0 0 193 110" fill="none" xmlns="http://www.w3.org/2000/svg">
<g clip-path="url(#clip0_177_250)">
<path d="M18.0673 85.9274C17.9151 85.9344 17.7644 85.8946 17.6356 85.8136C17.5068 85.7326 17.4062 85.6142 17.3474 85.4744C17.2886 85.3347 17.2745 85.1804 17.3069 85.0323C17.3393 84.8843 17.4167 84.7498 17.5286 84.647C17.5474 84.5729 17.5608 84.5198 17.5796 84.4457C17.5729 84.4296 17.5661 84.4135 17.5593 84.3974C17.4059 84.0374 17.149 83.7304 16.8206 83.515C16.4923 83.2997 16.1072 83.1856 15.7138 83.187C15.3204 83.1885 14.9362 83.3054 14.6095 83.5232C14.2828 83.741 14.0281 84.0498 13.8774 84.411C13.2752 85.8526 12.5085 87.2965 12.3197 88.8207C12.2366 89.4944 12.2717 90.1774 12.4234 90.8392C11.009 87.7727 10.2746 84.4397 10.2698 81.0664C10.2695 80.2199 10.3169 79.374 10.4116 78.5327C10.4898 77.8431 10.5984 77.1583 10.7374 76.4785C11.4954 72.7898 13.1231 69.3324 15.4866 66.3903C16.6305 65.7699 17.5557 64.816 18.1373 63.6569C18.348 63.2403 18.4969 62.7955 18.5794 62.3365C18.4504 62.3533 18.3192 62.3638 18.1902 62.3722C18.15 62.3743 18.1077 62.3764 18.0675 62.3785L18.0523 62.3792C17.9105 62.3855 17.7699 62.351 17.6473 62.2797C17.5248 62.2085 17.4256 62.1035 17.3617 61.9775C17.2978 61.8515 17.2719 61.7098 17.2871 61.5695C17.3024 61.4293 17.3581 61.2963 17.4475 61.1868C17.5032 61.1186 17.559 61.0505 17.6148 60.9824C17.6994 60.8773 17.7861 60.7743 17.8707 60.6691C17.8805 60.6592 17.8897 60.6486 17.8982 60.6376C17.9956 60.5177 18.0929 60.4 18.1902 60.2801C18.0126 60.0061 17.7736 59.7766 17.4921 59.6094C16.5168 59.0417 15.1714 59.4349 14.4669 60.3117C13.7604 61.1885 13.6271 62.4185 13.8725 63.5139C14.1138 64.4461 14.513 65.3306 15.0529 66.1296C15 66.1968 14.945 66.262 14.8921 66.3293C13.9254 67.5649 13.0827 68.8917 12.3764 70.2906C12.5481 68.7234 12.3431 67.138 11.7782 65.6649C11.2056 64.292 10.1323 63.1358 9.18723 61.9489C8.052 60.5233 5.72412 61.1455 5.52412 62.9526C5.52218 62.9701 5.52029 62.9876 5.51845 63.0051C5.65883 63.0838 5.79624 63.1674 5.93069 63.2557C6.09959 63.3679 6.23047 63.5282 6.30617 63.7155C6.38187 63.9029 6.39886 64.1086 6.35493 64.3057C6.31099 64.5028 6.20817 64.6821 6.05993 64.8202C5.9117 64.9582 5.72497 65.0485 5.52421 65.0793L5.50365 65.0825C5.55366 65.5853 5.64205 66.0837 5.76808 66.5732C6.13325 67.9398 6.77854 69.2168 7.66349 70.3239C8.54845 71.431 9.65399 72.3445 10.9108 73.0071C10.9933 73.0492 11.0737 73.0912 11.1562 73.1312C10.4465 75.1301 10.0014 77.2123 9.83192 79.3254C9.73599 80.5721 9.74165 81.8244 9.84884 83.0701L9.84249 83.026C9.57169 81.6407 8.8282 80.3908 7.73758 79.4873C6.11774 78.1648 3.82921 77.6777 2.08169 76.6147C1.89597 76.4962 1.68002 76.4329 1.45932 76.4324C1.23861 76.4319 1.02236 76.4941 0.836061 76.6117C0.649762 76.7293 0.501188 76.8974 0.407863 77.0962C0.314538 77.295 0.280353 77.5161 0.309343 77.7336C0.311686 77.7491 0.314069 77.7645 0.31649 77.78C0.576993 77.8854 0.830635 78.0069 1.07594 78.1437C1.21632 78.2225 1.35374 78.306 1.48818 78.3944C1.65709 78.5065 1.78796 78.6668 1.86367 78.8541C1.93937 79.0415 1.95636 79.2472 1.91242 79.4443C1.86848 79.6414 1.76566 79.8208 1.61743 79.9588C1.4692 80.0969 1.28246 80.1872 1.0817 80.2179L1.06113 80.2211C1.04632 80.2232 1.03363 80.2253 1.01884 80.2274C1.46395 81.2837 2.08867 82.256 2.86564 83.1016C3.82547 84.1253 4.98554 84.9433 6.27474 85.5055C7.56394 86.0677 8.95509 86.3623 10.3629 86.3712H10.365C10.7472 88.0217 11.3009 89.6283 12.0172 91.1651H17.9194C17.9406 91.0999 17.9596 91.0326 17.9786 90.9674C17.4323 91.0016 16.8839 90.9691 16.3455 90.8707C16.7834 90.3366 17.2213 89.7984 17.6592 89.2643C17.669 89.2543 17.6781 89.2438 17.6867 89.2328C17.9088 88.9595 18.1331 88.6882 18.3552 88.4149L18.3553 88.4146C18.3671 87.5767 18.2702 86.7407 18.0673 85.9274Z" fill="#F2F2F2"/>
<path d="M90.7582 91.2443C90.7583 91.2763 90.752 91.3079 90.7397 91.3375C90.7275 91.3671 90.7094 91.3939 90.6867 91.4165C90.6639 91.4392 90.6369 91.4571 90.6072 91.4693C90.5774 91.4815 90.5456 91.4877 90.5134 91.4876H0.558272C0.493349 91.4876 0.431083 91.462 0.385175 91.4163C0.339267 91.3707 0.313477 91.3088 0.313477 91.2443C0.313477 91.1798 0.339267 91.1179 0.385175 91.0722C0.431083 91.0266 0.493349 91.001 0.558272 91.001H90.5134C90.5456 91.0009 90.5774 91.0071 90.6072 91.0193C90.6369 91.0315 90.6639 91.0494 90.6867 91.072C90.7094 91.0946 90.7275 91.1215 90.7397 91.1511C90.752 91.1806 90.7583 91.2123 90.7582 91.2443Z" fill="#CCCCCC"/>
<path d="M42.7476 59.151C42.957 59.2206 43.1484 59.3349 43.3085 59.486C43.4686 59.6371 43.5934 59.8212 43.6742 60.0254C43.755 60.2296 43.7897 60.4489 43.7759 60.6679C43.7622 60.8869 43.7003 61.1002 43.5946 61.2928L45.76 63.963L44.4484 65.6667L41.4437 61.8532C41.1298 61.6553 40.8999 61.3498 40.7975 60.9947C40.6951 60.6396 40.7273 60.2595 40.8881 59.9265C41.0488 59.5934 41.3269 59.3305 41.6696 59.1876C42.0123 59.0447 42.3959 59.0317 42.7476 59.151Z" fill="#A0616A"/>
<path d="M43.7157 66.424L42.4927 63.4001L44.7551 61.8032L45.8126 63.687L47.3568 64.7338L49.408 66.5443C49.964 66.0905 54.2303 62.6924 55.595 64.137C55.7609 64.2993 55.8895 64.4953 55.9719 64.7116C56.0544 64.9279 56.0887 65.1594 56.0726 65.3901C55.9875 66.4898 54.814 67.413 54.7696 67.447L52.1796 69.8642C52.083 70.0279 51.065 71.7117 49.9015 72.0047C49.7356 72.0499 49.5621 72.0604 49.3919 72.0355C49.2217 72.0106 49.0586 71.9508 48.9129 71.86C46.2652 70.244 44.5724 68.6539 43.9506 67.2108C43.8399 66.9592 43.761 66.6949 43.7157 66.424Z" fill="#2F2E41"/>
<path d="M42.434 105.999L40.4419 106.092L39.1348 98.4991L42.075 98.3625L42.434 105.999Z" fill="#A0616A"/>
<path d="M43.5018 109.717L42.0883 109.783L41.7736 108.468L41.1898 109.825L37.4408 109.999C37.261 110.007 37.0834 109.958 36.9336 109.859C36.7839 109.76 36.67 109.616 36.6084 109.448C36.5469 109.28 36.5411 109.097 36.5918 108.925C36.6424 108.754 36.7469 108.603 36.89 108.494L39.7872 106.3L39.7241 104.959L42.8819 105L43.5018 109.717Z" fill="#2F2E41"/>
<path d="M21.6354 89.6965L20.9097 87.8505L27.7292 84.1897L31.174 86.3418L21.6354 89.6965Z" fill="#A0616A"/>
<path d="M18.4332 91.8923L17.9181 90.5823L19.0706 89.8652L17.5908 89.7496L16.2249 86.2751C16.1594 86.1086 16.1492 85.9256 16.1957 85.7529C16.2423 85.5801 16.3432 85.4267 16.4837 85.3151C16.6242 85.2034 16.7969 85.1392 16.9766 85.132C17.1564 85.1248 17.3338 85.1749 17.4829 85.275L20.5016 87.3008L21.7597 86.8123L22.7317 89.7987L18.4332 91.8923Z" fill="#2F2E41"/>
<path d="M60.8113 84.2019C60.8113 84.2019 59.984 89.4515 56.0731 89.8402C52.1622 90.2289 48.5572 88.4777 48.5572 88.4777L37.6068 85.1258C37.6068 85.1258 25.9594 88.4149 24.004 88.9332C24.004 88.9332 22.6552 85.8904 22.7003 85.694C23.1162 83.8855 23.658 85.1089 23.658 85.1089L36.0425 79.6671C36.0425 79.6671 37.9979 79.1488 41.3873 80.574C44.7767 81.9993 53.8569 85.4349 53.8569 85.4349L60.8113 84.2019Z" fill="#2F2E41"/>
<path d="M60.7663 83.8801C60.7663 83.8801 61.4185 90.1689 57.6089 91.1296C53.9875 92.0429 48.9922 91.1061 48.9922 91.1061L43.037 90.4881C43.037 90.4881 42.7763 98.0931 42.7763 101.851C41.5664 102.014 40.3472 102.101 39.1262 102.11C38.8654 102.11 38.8481 101.974 38.8481 101.974L38.3433 88.8301C38.3078 88.2587 38.3931 87.6861 38.5937 87.1494C38.7943 86.6127 39.1057 86.1237 39.5079 85.7138C39.9101 85.3039 40.3942 84.9822 40.929 84.7695C41.4638 84.5567 42.0375 84.4576 42.6132 84.4786C42.8943 84.4892 43.1892 84.509 43.4979 84.5379C47.1614 84.8871 51.7095 84.1449 51.7095 84.1449L60.7663 83.8801Z" fill="#2F2E41"/>
<path d="M50.199 74.7571C50.199 74.7571 48.6524 84.0528 49.6976 84.7948C50.7428 85.5369 52.1761 85.5398 52.1761 85.5398L52.5094 80.4073L50.199 74.7571Z" fill="#2F2E41"/>
<path d="M52.7788 63.3406L50.7109 65.2936C49.7497 66.2014 49.1126 67.3959 48.8962 68.696C48.6798 69.9962 48.8958 71.331 49.5116 72.498L50.5001 74.3716L52.7788 63.3406Z" fill="#2F2E41"/>
<path d="M53.2412 63.6689L50.4392 66.841C49.8242 67.5372 49.4431 68.4067 49.3491 69.3284C49.3063 69.7469 49.3235 70.1694 49.4001 70.5831L50.456 76.2885L51.2497 84.5279C51.2497 84.5279 57.3772 86.3731 58.0044 83.5238C58.6316 80.6744 53.2412 63.6689 53.2412 63.6689Z" fill="#5382AD"/>
<path d="M51.6434 81.832L50.7476 79.784L49.9873 74.4449C49.9459 74.1342 50.7967 69.0511 52.0285 63.5974L53.5256 61.5144L54.3891 60.7275L56.8489 62.3303C57.7362 62.7968 59.6764 68.8859 58.4822 73.195C58.0714 74.6772 58.7895 76.5226 58.9002 77.8846L60.605 82.0482L61.0088 84.4561L60.9472 84.4795C60.8857 84.5028 59.899 84.6353 55.8711 85.3024C52.5337 85.8552 54.3612 83.1353 51.6434 81.832Z" fill="#2F2E41"/>
<path d="M43.7589 79.5946C43.8813 79.412 44.0425 79.2584 44.2311 79.1444C44.4198 79.0304 44.6313 78.959 44.8507 78.9351C45.0701 78.9111 45.2922 78.9353 45.5012 79.0059C45.7102 79.0765 45.9011 79.1917 46.0605 79.3436L49.2207 77.9666L50.5311 79.6712L46.0407 81.5536C45.7663 81.8027 45.4095 81.9432 45.0378 81.9483C44.6662 81.9534 44.3056 81.8229 44.0243 81.5814C43.7431 81.34 43.5607 81.0043 43.5118 80.6382C43.4628 80.272 43.5507 79.9007 43.7589 79.5946Z" fill="#A0616A"/>
<path d="M51.0745 80.5723L47.8178 80.9527L46.8604 78.3642L48.9666 77.8436L50.3878 76.6369L52.6833 75.1441C52.3884 74.4919 50.2074 69.5091 51.9678 68.5788C52.1688 68.4622 52.3928 68.3902 52.6244 68.3679C52.8561 68.3455 53.0898 68.3732 53.3097 68.4491C54.3551 68.8191 54.9439 70.1866 54.9653 70.2381L56.6333 73.3559C56.767 73.4915 58.135 74.9092 58.1145 76.102C58.1149 76.273 58.0796 76.4422 58.0108 76.5989C57.942 76.7555 57.8412 76.8963 57.7148 77.0123C55.4518 79.1283 53.4642 80.3352 51.9 80.5533C51.6267 80.5935 51.3494 80.5999 51.0745 80.5723Z" fill="#2F2E41"/>
<path d="M53.1906 60.4654C55.3431 60.2091 56.8743 58.2283 56.6106 56.0413C56.347 53.8542 54.3883 52.2891 52.2358 52.5454C50.0833 52.8017 48.5521 54.7825 48.8158 56.9695C49.0794 59.1566 51.0381 60.7218 53.1906 60.4654Z" fill="#A0616A"/>
<path d="M62.9353 53.546C62.1802 52.857 61.7425 51.8758 61.1077 51.0669C60.473 50.258 59.4573 49.5874 58.5082 49.9062C57.8539 50.1261 57.4061 50.7765 57.2226 51.464C57.0392 52.1515 57.0772 52.8811 57.1167 53.5956C56.9573 52.1366 55.8212 50.8392 54.4347 50.5327C53.7323 50.3956 53.0042 50.4836 52.3553 50.7841C51.7064 51.0845 51.1702 51.5818 50.8238 52.2045C50.4184 51.9118 49.9192 51.7772 49.4206 51.826C48.9221 51.8749 48.4588 52.1038 48.1188 52.4695C47.7942 52.867 47.6147 53.3621 47.6095 53.874C47.6043 54.386 47.7737 54.8846 48.0901 55.2885C48.4159 55.6679 48.8699 55.916 49.3667 55.9863C49.8636 56.0565 50.3691 55.9441 50.7885 55.6702L51.1315 55.9158C51.0879 56.2273 51.1558 56.5441 51.3233 56.8109C51.4909 57.0776 51.7475 57.2774 52.0482 57.3751C52.5302 57.505 53.1755 57.397 53.4053 57.856C53.5659 58.1767 53.3843 58.5611 53.1763 58.847C52.9684 59.1329 52.7167 59.4326 52.7309 59.7923C52.7523 60.335 53.3567 60.645 53.8784 60.6979C54.5162 60.7475 55.1544 60.6068 55.7113 60.2939C56.2682 59.9809 56.7184 59.5099 57.0044 58.9411C57.0155 58.9188 57.0278 58.8962 57.0413 58.8736C57.3768 58.3229 57.5957 57.7099 57.6848 57.0723C57.7739 56.4346 57.7313 55.7856 57.5595 55.1649C57.4898 54.9213 57.5076 54.7318 57.6728 54.6524C58.3868 54.3095 60.5374 54.5946 61.227 55.0017C61.9166 55.4087 62.4991 55.9867 63.1692 56.4277C63.8393 56.8686 64.6621 57.1723 65.4175 56.9405C65.7194 56.8295 65.9959 56.6595 66.2306 56.4405C66.4652 56.2215 66.6534 55.958 66.7839 55.6655C67.0504 55.0687 67.2271 54.4361 67.3081 53.788C66.6597 54.2467 65.8737 54.4726 65.079 54.4286C64.2844 54.3846 63.5284 54.0734 62.9353 53.546Z" fill="#2F2E41"/>
<path d="M63.5288 79.5034L63.5269 79.5007L63.5288 79.5061V79.5034Z" fill="#2F2E41"/>
<path d="M37.9949 60.8766C36.3059 61.1341 34.5779 60.888 33.0296 60.1693C31.4813 59.4507 30.1822 58.2919 29.2965 56.8395C28.4108 55.387 27.9784 53.7062 28.0538 52.0094C28.1293 50.3127 28.7093 48.6763 29.7205 47.3072C30.7317 45.9381 32.1286 44.8978 33.7347 44.3178C35.3408 43.7378 37.0838 43.6441 38.7434 44.0487C40.403 44.4533 41.9046 45.3379 43.0584 46.5907C44.2122 47.8435 44.9662 49.4083 45.2253 51.087C45.3972 52.2017 45.3466 53.3391 45.0764 54.4343C44.8061 55.5295 44.3214 56.5611 43.65 57.4702C42.9786 58.3792 42.1336 59.1479 41.1633 59.7324C40.193 60.3169 39.1164 60.7057 37.9949 60.8766ZM35.438 44.3049C33.8293 44.5501 32.33 45.2639 31.1295 46.356C29.9291 47.4482 29.0814 48.8696 28.6937 50.4405C28.306 52.0114 28.3958 53.6614 28.9515 55.1816C29.5073 56.7019 30.5042 58.0242 31.8161 58.9814C33.128 59.9385 34.696 60.4876 36.3218 60.559C37.9477 60.6304 39.5583 60.2211 40.9501 59.3827C42.3419 58.5444 43.4522 57.3146 44.1408 55.849C44.8294 54.3834 45.0653 52.7478 44.8186 51.149C44.6548 50.0874 44.2822 49.0683 43.7222 48.1499C43.1621 47.2314 42.4255 46.4316 41.5544 45.796C40.6834 45.1605 39.6949 44.7017 38.6454 44.4459C37.5959 44.19 36.5061 44.1421 35.438 44.3049Z" fill="#5382AD"/>
<path d="M68.3518 28.3251C66.6628 28.5826 64.9349 28.3364 63.3865 27.6178C61.8382 26.8992 60.5391 25.7404 59.6534 24.288C58.7678 22.8355 58.3353 21.1547 58.4108 19.4579C58.4862 17.7612 59.0662 16.1248 60.0774 14.7557C61.0886 13.3866 62.4856 12.3463 64.0916 11.7663C65.6977 11.1863 67.4407 11.0926 69.1003 11.4972C70.7599 11.9018 72.2616 12.7864 73.4153 14.0392C74.5691 15.292 75.3232 16.8568 75.5822 18.5355C75.7542 19.6502 75.7036 20.7876 75.4333 21.8828C75.163 22.978 74.6783 24.0096 74.0069 24.9187C73.3355 25.8277 72.4906 26.5964 71.5203 27.1809C70.55 27.7654 69.4733 28.1542 68.3518 28.3251ZM65.7949 11.7534C64.1863 11.9986 62.6869 12.7124 61.4865 13.8045C60.286 14.8966 59.4383 16.318 59.0506 17.889C58.663 19.4599 58.7527 21.1098 59.3085 22.6301C59.8642 24.1504 60.8611 25.4727 62.173 26.4299C63.4849 27.387 65.0529 27.936 66.6788 28.0075C68.3046 28.0789 69.9153 27.6696 71.307 26.8312C72.6988 25.9928 73.8092 24.7631 74.4978 23.2975C75.1863 21.8319 75.4222 20.1963 75.1755 18.5975C74.8447 16.4535 73.6706 14.528 71.9114 13.2445C70.1521 11.961 67.952 11.4246 65.7949 11.7534Z" fill="#5382AD"/>
<path d="M103.363 47.7795C101.674 48.0369 99.9456 47.7908 98.3973 47.0722C96.849 46.3536 95.5499 45.1948 94.6642 43.7423C93.7785 42.2899 93.346 40.609 93.4215 38.9123C93.497 37.2155 94.077 35.5792 95.0882 34.2101C96.0994 32.841 97.4963 31.8006 99.1024 31.2206C100.708 30.6406 102.451 30.547 104.111 30.9516C105.771 31.3561 107.272 32.2408 108.426 33.4936C109.58 34.7464 110.334 36.3111 110.593 37.9899C110.765 39.1045 110.714 40.2419 110.444 41.3371C110.174 42.4324 109.689 43.464 109.018 44.373C108.346 45.2821 107.501 46.0508 106.531 46.6352C105.561 47.2197 104.484 47.6085 103.363 47.7795ZM100.806 31.2078C99.197 31.453 97.6977 32.1667 96.4972 33.2589C95.2967 34.351 94.4491 35.7724 94.0614 37.3433C93.6737 38.9143 93.7634 40.5642 94.3192 42.0845C94.875 43.6047 95.8719 44.927 97.1838 45.8842C98.4957 46.8414 100.064 47.3904 101.69 47.4618C103.315 47.5333 104.926 47.1239 106.318 46.2855C107.71 45.4472 108.82 44.2175 109.509 42.7519C110.197 41.2863 110.433 39.6507 110.186 38.0518C109.855 35.9079 108.681 33.9824 106.922 32.6989C105.163 31.4153 102.963 30.879 100.806 31.2078Z" fill="#5382AD"/>
<path d="M144.867 17.0764C143.178 17.3338 141.45 17.0877 139.902 16.3691C138.354 15.6504 137.055 14.4916 136.169 13.0392C135.283 11.5867 134.851 9.90587 134.926 8.20915C135.002 6.51242 135.582 4.87604 136.593 3.50693C137.604 2.13783 139.001 1.0975 140.607 0.517488C142.213 -0.0625211 143.956 -0.156154 145.616 0.24843C147.276 0.653014 148.777 1.53764 149.931 2.79045C151.085 4.04326 151.839 5.60797 152.098 7.28673C152.27 8.40139 152.219 9.5388 151.949 10.634C151.679 11.7292 151.194 12.7608 150.523 13.6699C149.851 14.5789 149.006 15.3476 148.036 15.9321C147.066 16.5166 145.989 16.9054 144.867 17.0764ZM142.311 0.504641C140.702 0.749828 139.203 1.46361 138.002 2.55573C136.802 3.64786 135.954 5.06926 135.566 6.64021C135.179 8.21115 135.268 9.86107 135.824 11.3813C136.38 12.9016 137.377 14.2239 138.689 15.1811C140.001 16.1382 141.569 16.6873 143.194 16.7587C144.82 16.8301 146.431 16.4208 147.823 15.5824C149.214 14.7441 150.325 13.5143 151.013 12.0487C151.702 10.5832 151.938 8.94753 151.691 7.34872C151.36 5.20477 150.186 3.27924 148.427 1.99573C146.668 0.712214 144.468 0.175855 142.311 0.504641Z" fill="#5382AD"/>
<path d="M184.21 31.9711C182.521 32.2286 180.793 31.9824 179.245 31.2638C177.697 30.5452 176.398 29.3864 175.512 27.934C174.626 26.4815 174.194 24.8006 174.269 23.1039C174.345 21.4072 174.925 19.7708 175.936 18.4017C176.947 17.0326 178.344 15.9923 179.95 15.4123C181.556 14.8323 183.299 14.7386 184.959 15.1432C186.618 15.5478 188.12 16.4324 189.274 17.6852C190.427 18.938 191.182 20.5028 191.441 22.1815C191.788 24.4327 191.221 26.7287 189.865 28.5647C188.509 30.4006 186.475 31.6259 184.21 31.9711ZM181.653 15.3994C180.045 15.6446 178.545 16.3584 177.345 17.4505C176.144 18.5426 175.297 19.964 174.909 21.535C174.521 23.1059 174.611 24.7558 175.167 26.2761C175.723 27.7964 176.72 29.1187 178.031 30.0759C179.343 31.033 180.911 31.582 182.537 31.6535C184.163 31.7249 185.774 31.3156 187.165 30.4772C188.557 29.6388 189.668 28.4091 190.356 26.9435C191.045 25.4779 191.281 23.8423 191.034 22.2435C190.703 20.0995 189.529 18.174 187.77 16.8905C186.011 15.607 183.81 15.0706 181.653 15.3994Z" fill="#5382AD"/>
<path d="M71.5636 16.7689L72.549 16.4118C72.549 16.4118 71.8416 17.4918 71.6883 17.5772C71.7043 17.7814 71.7355 17.984 71.7818 18.1835C71.1145 26.8073 63.349 24.2263 63.349 24.2263C65.9814 23.8871 66.0398 22.782 66.0398 22.782C64.4805 22.7921 64.0227 21.8483 64.0227 21.8483C64.1706 21.8992 64.3322 21.8941 64.4765 21.8339C64.6208 21.7737 64.7377 21.6628 64.8048 21.5223C63.0924 21.3489 63.0697 19.7183 63.0697 19.7183C63.3958 19.8842 63.7592 19.9641 64.1253 19.9504C63.908 19.756 62.0789 18.1525 62.8676 17.0601C62.8676 17.0601 64.3181 18.9074 67.3352 18.6337L67.5323 18.5623C67.4753 18.422 67.4385 18.2744 67.423 18.1239C67.3362 17.5611 67.4778 16.9871 67.8168 16.5281C68.1558 16.0691 68.6644 15.7628 69.2306 15.6765C70.6539 15.4596 71.0837 16.2214 71.0837 16.2214L72.0068 15.4602C71.9865 15.4633 72.0407 16.4893 71.5636 16.7689Z" fill="#5382AD"/>
<path d="M103.731 34.7382C104.3 34.6531 104.88 34.7954 105.344 35.1339C105.808 35.4724 106.118 35.9796 106.207 36.5447L106.866 40.8119C106.951 41.3776 106.808 41.9539 106.467 42.415C106.127 42.8761 105.617 43.1846 105.048 43.273L100.755 43.9274C100.185 44.0124 99.6056 43.8701 99.1417 43.5316C98.6778 43.1931 98.3674 42.6859 98.2785 42.1208L97.6201 37.8536C97.5345 37.2879 97.6777 36.7116 98.0182 36.2505C98.3588 35.7894 98.8691 35.4809 99.4377 35.3926L103.731 34.7382ZM103.599 33.8848L99.3061 34.5392C98.51 34.6629 97.7956 35.0946 97.3188 35.7402C96.842 36.3857 96.6416 37.1926 96.7615 37.9845L97.4199 42.2516C97.5443 43.0428 97.9787 43.7529 98.6282 44.2268C99.2777 44.7007 100.09 44.8998 100.886 44.7807L105.18 44.1263C105.976 44.0027 106.69 43.5709 107.167 42.9253C107.644 42.2798 107.844 41.4729 107.724 40.681L107.066 36.4139C106.941 35.6227 106.507 34.9126 105.857 34.4387C105.208 33.9649 104.396 33.7657 103.599 33.8848Z" fill="#5382AD"/>
<path d="M104.705 36.7737C104.534 36.7992 104.361 36.7565 104.222 36.655C104.083 36.5534 103.991 36.4013 103.965 36.232C103.939 36.0627 103.982 35.8901 104.084 35.7522C104.186 35.6142 104.339 35.5221 104.509 35.4962C104.679 35.4703 104.853 35.5126 104.992 35.6139C105.131 35.7152 105.224 35.8671 105.25 36.0363C105.276 36.2056 105.234 36.3782 105.132 36.5164C105.03 36.6546 104.878 36.747 104.707 36.7733L104.705 36.7737Z" fill="#5382AD"/>
<path d="M101.98 37.6258C102.319 37.574 102.667 37.6235 102.978 37.768C103.289 37.9125 103.551 38.1456 103.729 38.4377C103.907 38.7298 103.994 39.0678 103.979 39.409C103.964 39.7503 103.847 40.0794 103.644 40.3547C103.44 40.63 103.159 40.8392 102.836 40.9559C102.513 41.0725 102.163 41.0914 101.829 41.01C101.495 40.9286 101.193 40.7507 100.961 40.4988C100.729 40.2468 100.578 39.9321 100.525 39.5945C100.491 39.3704 100.501 39.1416 100.555 38.9214C100.61 38.7011 100.707 38.4936 100.842 38.3108C100.977 38.128 101.147 37.9734 101.342 37.8559C101.537 37.7383 101.754 37.6601 101.98 37.6258ZM101.848 36.7724C101.338 36.85 100.863 37.0761 100.483 37.422C100.103 37.7679 99.8345 38.2181 99.7117 38.7157C99.589 39.2133 99.6174 39.7358 99.7934 40.2174C99.9694 40.6989 100.285 41.1177 100.701 41.4209C101.116 41.724 101.613 41.8979 102.128 41.9205C102.643 41.9432 103.153 41.8135 103.594 41.548C104.035 41.2825 104.386 40.893 104.604 40.4288C104.822 39.9646 104.897 39.4465 104.819 38.9401C104.714 38.2611 104.342 37.6512 103.785 37.2447C103.228 36.8381 102.531 36.6682 101.848 36.7724Z" fill="#5382AD"/>
<path d="M182.351 17.9405C181.065 18.1366 179.886 18.7666 179.013 19.7245C178.139 20.6825 177.623 21.9101 177.553 23.2012C177.482 24.4924 177.861 25.7683 178.625 26.8148C179.389 27.8612 180.492 28.6144 181.749 28.9479C181.66 28.5234 181.626 28.089 181.65 27.6559C181.687 27.1873 181.901 24.5122 181.901 24.5122C181.736 24.2537 181.629 23.9631 181.586 23.66C181.458 22.835 181.843 22.1456 182.443 22.0542C182.953 21.9764 183.257 22.3193 183.327 22.774C183.406 23.2834 183.196 24.0936 183.137 24.8249C183.124 24.9607 183.143 25.0977 183.193 25.2248C183.243 25.3519 183.322 25.4656 183.424 25.5567C183.526 25.6478 183.649 25.7138 183.781 25.7492C183.914 25.7847 184.053 25.7887 184.187 25.7609C185.247 25.5994 185.753 24.1361 185.506 22.531C185.317 21.3109 184.349 20.5251 182.847 20.7541C181.149 21.0129 180.283 22.4342 180.5 23.8406C180.545 24.2398 180.737 24.6083 181.039 24.8751C181.089 24.905 181.129 24.9499 181.152 25.0036C181.175 25.0572 181.18 25.1167 181.167 25.1735C181.155 25.2796 181.133 25.5347 181.121 25.6383C181.121 25.6691 181.113 25.6994 181.099 25.7267C181.084 25.754 181.064 25.7775 181.039 25.7953C181.013 25.8131 180.984 25.8246 180.953 25.8289C180.923 25.8332 180.891 25.8302 180.862 25.8201C180.031 25.6213 179.534 24.8272 179.386 23.868C179.143 22.2877 180.193 20.1871 182.853 19.7817C184.99 19.4559 186.635 20.7794 186.89 22.4294C187.227 24.6135 186.256 26.4299 184.456 26.7043C183.851 26.7965 183.233 26.5575 182.981 26.2194C182.981 26.2194 182.854 27.5511 182.822 27.8103C182.758 28.2522 182.631 28.6827 182.444 29.0887C183.249 29.1975 184.068 29.1328 184.846 28.8992C185.624 28.6656 186.342 28.2684 186.952 27.7347C187.561 27.201 188.049 26.5432 188.38 25.8058C188.712 25.0685 188.88 24.269 188.873 23.4615C188.866 22.6539 188.685 21.8572 188.341 21.1255C187.998 20.3937 187.499 19.744 186.881 19.2204C186.262 18.6967 185.538 18.3114 184.756 18.0906C183.975 17.8698 183.154 17.8186 182.351 17.9405Z" fill="#5382AD"/>
<path d="M147.999 4.49171L140.456 3.38706C140.262 3.34903 140.061 3.38912 139.897 3.4985C139.733 3.60788 139.619 3.77759 139.581 3.9703L139.58 3.97354L138.466 11.487C138.442 11.6899 138.496 11.8945 138.618 12.0588C138.741 12.223 138.922 12.3343 139.124 12.3699L146.665 13.4742C146.865 13.4955 147.065 13.4378 147.222 13.3136C147.379 13.1894 147.48 13.0087 147.504 12.8106L148.618 5.29715C148.648 5.11498 148.604 4.92837 148.496 4.77836C148.388 4.62836 148.224 4.52724 148.041 4.49726C148.027 4.495 148.013 4.49315 147.999 4.49171ZM141.375 11.1719L140.081 10.9822L140.674 6.98109L141.969 7.1707L141.375 11.1719ZM141.456 6.47411L141.447 6.47275C141.261 6.44428 141.094 6.34365 140.982 6.19291C140.87 6.04216 140.824 5.8536 140.852 5.66854C140.88 5.48348 140.98 5.31701 141.132 5.20561C141.283 5.09421 141.472 5.04696 141.659 5.07421C141.845 5.10146 142.013 5.201 142.125 5.35101C142.238 5.50102 142.286 5.68926 142.259 5.8745C142.233 6.05974 142.133 6.22687 141.982 6.33926C141.832 6.45165 141.643 6.50014 141.456 6.47411ZM146.107 11.8649L144.813 11.6753L145.137 9.48751C145.215 8.96337 145.079 8.57767 144.611 8.50907C144.464 8.48877 144.315 8.5142 144.183 8.58186C144.052 8.64952 143.945 8.75608 143.877 8.88684C143.827 8.98347 143.796 9.08839 143.785 9.19629L143.447 11.4753L142.152 11.2857L142.745 7.28449L144.04 7.47411L143.958 8.03093C144.106 7.84552 144.301 7.70315 144.523 7.61878C144.746 7.53442 144.987 7.51116 145.222 7.55148C146.072 7.67594 146.632 8.32692 146.454 9.52738L146.107 11.8649Z" fill="#5382AD"/>
<path fill-rule="evenodd" clip-rule="evenodd" d="M42.2731 51.571C42.1093 50.5107 41.6433 49.5192 40.9301 48.714C40.217 47.9087 39.2867 47.3234 38.2493 47.0273C37.2119 46.7313 36.1109 46.7369 35.0765 47.0434C34.0422 47.35 33.1179 47.9446 32.4131 48.7571C31.7083 49.5695 31.2524 50.5656 31.0995 51.6275C30.9465 52.6895 31.1029 53.7727 31.5502 54.749C31.9974 55.7253 32.7167 56.5538 33.623 57.1365C34.5293 57.7191 35.5845 58.0314 36.6638 58.0365L36.0656 54.1593L34.6477 54.3754L34.4002 52.771L35.818 52.5549L35.6294 51.3322C35.4149 49.9418 36.1299 49.046 37.405 48.8517C37.8246 48.7937 38.248 48.7663 38.6716 48.7697L38.8823 50.1353L38.178 50.2427C37.4849 50.3483 37.334 50.8089 37.4018 51.2484L37.5624 52.2892L39.1107 52.0533L39.111 53.6954L37.81 53.8937L38.4083 57.7711C39.6897 57.3642 40.7829 56.5162 41.4914 55.3796C42.1999 54.2431 42.4771 52.8925 42.2731 51.571Z" fill="#5382AD"/>
<path d="M146.45 87.3949L148.515 87.9341L151.591 80.2708L148.542 79.4751L146.45 87.3949Z" fill="#FFB6B6"/>
<path d="M145.811 89.5179L152.164 91.176L152.185 91.0961C152.357 90.4443 152.262 89.7513 151.92 89.1693C151.578 88.5874 151.017 88.1643 150.362 87.9931L149.432 86.8152L147.036 87.1251L146.481 86.9804L145.811 89.5179Z" fill="#2F2E41"/>
<path d="M157.04 88.9309H159.176L160.192 80.7424L157.04 80.7426L157.04 88.9309Z" fill="#FFB6B6"/>
<path d="M156.965 91.1456L163.533 91.1453V91.0627C163.533 90.3889 163.264 89.7426 162.784 89.2661C162.305 88.7896 161.655 88.5219 160.977 88.5218L159.777 87.6172L157.538 88.522L156.965 88.522L156.965 91.1456Z" fill="#2F2E41"/>
<path d="M151.698 49.7466C151.182 50.3876 151.44 52.567 151.44 52.567C151.44 52.567 150.537 59.6182 150.924 60.2592C151.311 60.9003 150.666 61.4131 150.279 62.3105C149.892 63.2079 149.505 65.3874 149.505 65.3874C147.312 67.1822 147.441 75.3872 147.441 75.3872L146.667 82.6948C146.925 83.464 150.537 83.5922 151.053 83.464C151.569 83.3358 156.6 65.2592 156.6 65.2592C156.6 65.2592 156.342 82.6948 156.342 83.464C156.342 84.2332 159.824 83.8486 160.598 83.8486C161.372 83.8486 166.274 52.4388 166.274 52.4388V50.644L165.629 49.7466C165.629 49.7466 152.214 49.1056 151.698 49.7466Z" fill="#2F2E41"/>
<path d="M157.374 26.2853C159.582 26.2853 161.372 24.5059 161.372 22.311C161.372 20.116 159.582 18.3367 157.374 18.3367C155.165 18.3367 153.375 20.116 153.375 22.311C153.375 24.5059 155.165 26.2853 157.374 26.2853Z" fill="#FFB6B6"/>
<path d="M152.001 52.5819L151.98 52.5514C150.815 50.9306 152.567 47.0358 152.831 46.4712C152.517 46.37 152.248 46.1638 152.07 45.8878C151.892 45.6117 151.816 45.2829 151.855 44.9573L151.969 43.995L152.087 43.0511L151.237 42.2057L151.234 42.1846L150.745 37.9276L150.033 35.1002C149.765 34.0313 149.788 32.9108 150.099 31.8536C150.411 30.7964 151 29.8406 151.806 29.0844L153.451 28.8248L155.45 26.9102H158.674L159.78 27.9599C161.953 29.7306 162.469 28.9614 164.92 32.2947L163.165 36.8897L164.146 43.6669L164.147 44.8934L164.658 45.4576C164.842 45.6609 164.975 45.9041 165.048 46.1678C165.121 46.4315 165.131 46.7084 165.077 46.9766L165.01 47.3104C165.269 47.421 165.498 47.5919 165.678 47.8087C165.857 48.0255 165.982 48.2819 166.041 48.5564L166.221 49.3886C166.374 49.5899 167.387 50.9327 167.387 51.2998C167.387 51.3549 167.346 51.4081 167.259 51.4672C166.568 51.932 162.751 52.8794 161.062 52.2076C159.263 51.4925 152.111 52.5652 152.039 52.5761L152.001 52.5819Z" fill="#5382AD"/>
<path d="M149.97 36.4601L153.295 35.8132C154.524 37.6383 155.184 42.6288 155.184 42.6288L158.86 50.2057C159.086 50.3422 159.272 50.5357 159.398 50.7665C159.524 50.9974 159.586 51.2574 159.579 51.52C159.571 51.7827 159.493 52.0386 159.354 52.2617C159.214 52.4848 159.017 52.6671 158.784 52.7901C158.55 52.9131 158.288 52.9723 158.024 52.9618C157.759 52.9513 157.503 52.8714 157.28 52.7302C157.057 52.589 156.876 52.3917 156.754 52.1582C156.633 51.9247 156.576 51.6634 156.59 51.401L151.795 42.4237L149.97 36.4601Z" fill="#FFB6B6"/>
<path d="M149.951 37.2441L149.856 32.3326L151.421 30.2521C151.73 29.8448 152.147 29.5314 152.625 29.3474C153.104 29.1633 153.625 29.1159 154.129 29.2106C154.811 29.3435 155.417 29.729 155.825 30.2891C156.232 30.8493 156.411 31.5424 156.324 32.2282C156.058 34.3079 155.455 36.9106 154.091 37.4994L154.077 37.5054L155.491 42.4195L150.248 43.1474L149.951 37.2441Z" fill="#5382AD"/>
<path d="M171.403 33.0921C171.403 33.0921 166.442 32.0813 164.305 32.6399L163.833 35.9744L169.885 36.5083L180.214 34.6422C180.46 34.7387 180.726 34.7689 180.987 34.7297C181.248 34.6906 181.494 34.5835 181.7 34.4193C181.906 34.2552 182.064 34.0398 182.159 33.7951C182.255 33.5504 182.283 33.285 182.241 33.026C182.2 32.7669 182.09 32.5234 181.923 32.3201C181.756 32.1168 181.538 31.961 181.291 31.8685C181.045 31.7759 180.777 31.75 180.517 31.7934C180.257 31.8367 180.013 31.9477 179.809 32.1151L171.403 33.0921Z" fill="#FFB6B6"/>
<path d="M165.396 36.7553L160.483 36.2168L158.609 34.4071C158.242 34.0505 157.983 33.5991 157.861 33.1038C157.739 32.6085 157.758 32.0892 157.918 31.6045C158.138 30.9488 158.601 30.4008 159.212 30.0712C159.823 29.7416 160.538 29.655 161.211 29.829C163.252 30.3582 165.294 29.8646 165.706 31.2848L166.442 31.0455L171.272 31.9602L171.324 37.2214L165.396 36.7553Z" fill="#5382AD"/>
<path d="M152.838 19.6997C153.287 19.0093 154.129 18.5491 154.946 18.6784C155.022 18.1603 155.24 17.6729 155.575 17.2692C155.911 16.8654 156.351 16.5609 156.849 16.3888C157.346 16.2167 157.882 16.1835 158.397 16.2929C158.912 16.4023 159.387 16.6501 159.771 17.0093C159.897 16.9211 160.043 16.8667 160.197 16.8515C160.35 16.8362 160.505 16.8606 160.646 16.9222C160.927 17.0492 161.172 17.2444 161.357 17.4897C161.826 18.0706 162.128 18.767 162.23 19.5047C162.332 20.2425 162.231 20.9939 161.937 21.679C162.037 21.3183 161.673 20.979 161.306 20.8981C160.938 20.8171 160.553 20.8937 160.18 20.841C159.703 20.7734 159.273 20.4981 158.795 20.4361C158.389 20.4099 157.982 20.4618 157.597 20.5891C157.211 20.7164 156.805 20.7707 156.399 20.749C155.996 20.7015 155.478 22.218 155.485 23.2861C155.486 23.4885 155.444 23.7484 155.245 23.7913C155 23.8442 154.858 23.508 154.624 23.4164C154.517 23.3858 154.402 23.3978 154.303 23.45C154.204 23.5022 154.13 23.5905 154.095 23.6962C154.066 23.8037 154.063 23.9166 154.086 24.0255C154.109 24.1344 154.158 24.2362 154.229 24.3224C154.373 24.4934 154.543 24.6401 154.734 24.7571L154.637 24.8365C154.546 24.9323 154.424 24.9936 154.293 25.0098C154.161 25.0261 154.028 24.9963 153.916 24.9256C153.695 24.7773 153.517 24.5755 153.398 24.3392C152.947 23.6472 152.625 22.8806 152.447 22.0757C152.271 21.2631 152.411 20.4144 152.838 19.6997Z" fill="#2F2E41"/>
<path d="M186.386 87.9128L184.8 85.3796L184.483 86.8272C184.427 87.0807 184.372 87.3383 184.32 87.5939C183.87 87.2115 183.39 86.8578 182.921 86.5184C181.481 85.4798 180.042 84.4398 178.604 83.3984L179.054 85.995C179.332 87.5939 179.622 89.2255 180.309 90.6873C180.385 90.8529 180.467 91.0165 180.556 91.176H187.25C187.303 91.0278 187.341 90.8742 187.361 90.718C187.362 90.7079 187.363 90.6976 187.363 90.6873C187.468 89.6957 186.916 88.7613 186.386 87.9128Z" fill="#F0F0F0"/>
<path d="M192.051 91.4249L135.326 91.4877C135.294 91.4878 135.262 91.4816 135.232 91.4694C135.202 91.4572 135.175 91.4393 135.153 91.4166C135.13 91.394 135.112 91.3672 135.099 91.3376C135.087 91.308 135.081 91.2763 135.081 91.2443C135.081 91.2122 135.087 91.1805 135.099 91.1509C135.112 91.1213 135.13 91.0945 135.153 91.0719C135.175 91.0493 135.202 91.0313 135.232 91.0192C135.262 91.007 135.294 91.0007 135.326 91.0008L192.051 90.938C192.116 90.938 192.178 90.9636 192.224 91.0093C192.27 91.0549 192.296 91.1169 192.296 91.1814C192.296 91.246 192.27 91.3079 192.224 91.3536C192.178 91.3992 192.116 91.4249 192.051 91.4249Z" fill="#CACACA"/>
</g>
<defs>
<clipPath id="clip0_177_250">
<rect width="192" height="110" fill="white" transform="translate(0.295898)"/>
</clipPath>
</defs>
</svg>
