<svg width="186" height="153" viewBox="0 0 186 153" fill="none" xmlns="http://www.w3.org/2000/svg">
<g clip-path="url(#clip0_177_71)">
<path d="M25.867 144.909C25.6547 144.919 25.4446 144.863 25.2651 144.749C25.0856 144.635 24.9454 144.469 24.8634 144.273C24.7815 144.077 24.7618 143.86 24.8069 143.652C24.8521 143.445 24.96 143.256 25.116 143.111C25.1422 143.007 25.1609 142.933 25.187 142.829C25.1777 142.806 25.1683 142.784 25.1588 142.761C24.945 142.255 24.5868 141.824 24.129 141.522C23.6713 141.22 23.1346 141.06 22.5862 141.062C22.0378 141.064 21.5022 141.228 21.0467 141.534C20.5913 141.839 20.2362 142.273 20.0262 142.78C19.1867 144.804 18.1179 146.831 17.8548 148.971C17.7389 149.917 17.7878 150.876 17.9993 151.805C16.0276 147.5 15.0037 142.82 14.9972 138.084C14.9967 136.896 15.0627 135.708 15.1947 134.527C15.3039 133.559 15.4552 132.598 15.6489 131.643C16.7057 126.465 18.9746 121.611 22.2694 117.48C23.8641 116.609 25.1537 115.27 25.9645 113.643C26.2583 113.058 26.4658 112.433 26.5809 111.789C26.401 111.813 26.2181 111.827 26.0383 111.839C25.9822 111.842 25.9232 111.845 25.8672 111.848L25.8461 111.849C25.6484 111.858 25.4523 111.809 25.2815 111.709C25.1107 111.609 24.9724 111.462 24.8834 111.285C24.7943 111.108 24.7582 110.909 24.7794 110.712C24.8006 110.515 24.8782 110.329 25.003 110.175C25.0806 110.079 25.1583 109.983 25.2361 109.888C25.3541 109.74 25.475 109.596 25.5929 109.448C25.6066 109.434 25.6194 109.419 25.6313 109.404C25.767 109.236 25.9026 109.07 26.0383 108.902C25.7906 108.517 25.4576 108.195 25.0651 107.96C23.7056 107.163 21.83 107.715 20.848 108.946C19.863 110.177 19.6772 111.904 20.0193 113.442C20.3557 114.751 20.9122 115.992 21.6649 117.114C21.5911 117.209 21.5144 117.3 21.4407 117.395C20.093 119.129 18.9184 120.992 17.9337 122.956C18.1732 120.756 17.8874 118.53 17.0998 116.462C16.3016 114.534 14.8055 112.911 13.488 111.245C11.9055 109.243 8.66037 110.117 8.38157 112.654C8.37887 112.678 8.37624 112.703 8.37366 112.728C8.56935 112.838 8.76091 112.955 8.94834 113.079C9.18379 113.237 9.36623 113.462 9.47176 113.725C9.57729 113.988 9.60098 114.277 9.53973 114.554C9.47848 114.83 9.33515 115.082 9.12851 115.276C8.92187 115.47 8.66156 115.596 8.3817 115.64L8.35304 115.644C8.42275 116.35 8.54597 117.05 8.72165 117.737C9.2307 119.656 10.1303 121.448 11.3639 123.003C12.5975 124.557 14.1387 125.84 15.8907 126.77C16.0057 126.829 16.1178 126.888 16.2328 126.944C15.2435 129.75 14.6229 132.674 14.3867 135.64C14.253 137.39 14.2609 139.149 14.4103 140.898L14.4015 140.836C14.024 138.891 12.9875 137.136 11.4672 135.867C9.20911 134.011 6.01887 133.327 3.5828 131.835C3.3239 131.668 3.02286 131.579 2.7152 131.579C2.40753 131.578 2.10608 131.665 1.84638 131.83C1.58667 131.995 1.37955 132.231 1.24946 132.511C1.11936 132.79 1.07171 133.1 1.11212 133.405C1.11539 133.427 1.11871 133.449 1.12209 133.471C1.48523 133.619 1.83881 133.789 2.18076 133.981C2.37646 134.092 2.56802 134.209 2.75545 134.333C2.9909 134.491 3.17334 134.716 3.27887 134.979C3.3844 135.242 3.40808 135.53 3.34683 135.807C3.28558 136.084 3.14225 136.336 2.93561 136.529C2.72897 136.723 2.46866 136.85 2.1888 136.893L2.16012 136.898C2.13947 136.901 2.12178 136.904 2.10117 136.907C2.72165 138.39 3.59252 139.755 4.67563 140.942C6.01365 142.379 7.63082 143.527 9.42798 144.317C11.2251 145.106 13.1644 145.52 15.1269 145.532H15.1299C15.6626 147.849 16.4345 150.105 17.4331 152.262H25.6608C25.6903 152.171 25.7168 152.076 25.7434 151.985C24.9818 152.033 24.2172 151.987 23.4667 151.849C24.0772 151.099 24.6876 150.344 25.2981 149.594C25.3117 149.58 25.3245 149.565 25.3364 149.549C25.6461 149.166 25.9587 148.785 26.2683 148.401L26.2685 148.401C26.285 147.224 26.1501 146.051 25.8672 144.909L25.867 144.909Z" fill="#F2F2F2"/>
<path d="M160.953 144.909C161.165 144.919 161.375 144.863 161.555 144.749C161.734 144.635 161.875 144.469 161.957 144.273C162.039 144.077 162.058 143.86 162.013 143.652C161.968 143.445 161.86 143.256 161.704 143.111C161.678 143.007 161.659 142.933 161.633 142.829C161.642 142.806 161.652 142.784 161.661 142.761C161.875 142.255 162.233 141.824 162.691 141.522C163.149 141.22 163.686 141.06 164.234 141.062C164.782 141.064 165.318 141.228 165.773 141.534C166.229 141.839 166.584 142.273 166.794 142.78C167.633 144.804 168.702 146.831 168.965 148.971C169.081 149.917 169.032 150.876 168.821 151.805C170.793 147.5 171.816 142.82 171.823 138.084C171.823 136.896 171.757 135.708 171.625 134.527C171.516 133.559 171.365 132.598 171.171 131.643C170.114 126.465 167.846 121.611 164.551 117.48C162.956 116.609 161.666 115.27 160.856 113.643C160.562 113.058 160.354 112.433 160.239 111.789C160.419 111.813 160.602 111.827 160.782 111.839C160.838 111.842 160.897 111.845 160.953 111.848L160.974 111.849C161.172 111.858 161.368 111.809 161.539 111.709C161.709 111.609 161.848 111.462 161.937 111.285C162.026 111.108 162.062 110.909 162.041 110.712C162.02 110.515 161.942 110.329 161.817 110.175C161.739 110.079 161.662 109.983 161.584 109.888C161.466 109.74 161.345 109.596 161.227 109.448C161.214 109.434 161.201 109.419 161.189 109.404C161.053 109.236 160.918 109.07 160.782 108.902C161.029 108.517 161.363 108.195 161.755 107.96C163.115 107.163 164.99 107.715 165.972 108.946C166.957 110.177 167.143 111.904 166.801 113.442C166.464 114.751 165.908 115.992 165.155 117.114C165.229 117.209 165.306 117.3 165.379 117.395C166.727 119.129 167.902 120.992 168.886 122.956C168.647 120.756 168.933 118.53 169.72 116.462C170.519 114.534 172.015 112.911 173.332 111.245C174.915 109.243 178.16 110.117 178.439 112.654C178.441 112.678 178.444 112.703 178.446 112.728C178.251 112.838 178.059 112.955 177.872 113.079C177.636 113.237 177.454 113.462 177.348 113.725C177.243 113.988 177.219 114.277 177.28 114.554C177.342 114.83 177.485 115.082 177.692 115.276C177.898 115.47 178.159 115.596 178.438 115.64L178.467 115.644C178.397 116.35 178.274 117.05 178.098 117.737C177.589 119.656 176.69 121.448 175.456 123.003C174.223 124.557 172.681 125.84 170.929 126.77C170.814 126.829 170.702 126.888 170.587 126.944C171.577 129.75 172.197 132.674 172.433 135.64C172.567 137.39 172.559 139.149 172.41 140.898L172.419 140.836C172.796 138.891 173.833 137.136 175.353 135.867C177.611 134.011 180.801 133.327 183.237 131.835C183.496 131.668 183.797 131.579 184.105 131.579C184.413 131.578 184.714 131.665 184.974 131.83C185.233 131.995 185.441 132.231 185.571 132.511C185.701 132.79 185.748 133.1 185.708 133.405C185.705 133.427 185.701 133.449 185.698 133.471C185.335 133.619 184.981 133.789 184.639 133.981C184.444 134.092 184.252 134.209 184.065 134.333C183.829 134.491 183.647 134.716 183.541 134.979C183.436 135.242 183.412 135.53 183.473 135.807C183.535 136.084 183.678 136.336 183.885 136.529C184.091 136.723 184.351 136.85 184.631 136.893L184.66 136.898C184.681 136.901 184.698 136.904 184.719 136.907C184.098 138.39 183.228 139.755 182.145 140.942C180.807 142.379 179.189 143.527 177.392 144.317C175.595 145.106 173.656 145.519 171.693 145.532H171.69C171.158 147.849 170.386 150.105 169.387 152.262H161.159C161.13 152.171 161.103 152.076 161.077 151.985C161.838 152.033 162.603 151.987 163.353 151.849C162.743 151.099 162.133 150.344 161.522 149.594C161.508 149.58 161.496 149.565 161.484 149.549C161.174 149.166 160.861 148.785 160.552 148.401L160.552 148.401C160.535 147.224 160.67 146.051 160.953 144.909Z" fill="#F2F2F2"/>
<path d="M59.0723 148.58H61.0641L62.0122 140.889H59.0723V148.58Z" fill="#9E616A"/>
<path d="M58.4223 147.214L61.6047 147.024V148.389L64.6304 150.48C64.7798 150.584 64.8924 150.732 64.9516 150.904C65.0108 151.076 65.0136 151.262 64.9596 151.436C64.9055 151.609 64.7975 151.761 64.6512 151.869C64.5049 151.976 64.328 152.035 64.1464 152.035H60.3576L59.7045 150.684L59.4495 152.035H58.021L58.4223 147.214Z" fill="#2F2E41"/>
<path d="M34.106 146.886L35.9567 147.623L39.6789 140.828L36.9475 139.74L34.106 146.886Z" fill="#9E616A"/>
<path d="M34.0064 145.376L37.0335 146.378L36.5292 147.646L38.5675 150.709C38.6682 150.861 38.7179 151.04 38.7095 151.222C38.701 151.403 38.6347 151.577 38.5204 151.719C38.4061 151.86 38.2496 151.961 38.0739 152.007C37.8982 152.053 37.7124 152.041 37.5436 151.974L34.0235 150.571L33.9155 149.075L33.1798 150.235L31.8525 149.706L34.0064 145.376Z" fill="#2F2E41"/>
<path d="M55.0569 125.694L51.7352 110.178L46.5482 127.418L38.3349 143.766L38.2914 143.853L35.6897 142.451C35.3225 135.813 36.1946 129.592 39.3841 124.153L40.8944 109.223C40.9407 108.713 42.0673 96.737 45.6346 94.6132L46.6793 92.2287L57.0701 89.6599L57.1079 89.7025C58.1071 90.8267 58.7671 92.2115 59.0113 93.6962L62.1162 112.524L62.118 112.534L61.2854 125.669L62.4242 145.047H58.3037C55.7547 140.246 54.6724 133.795 55.0569 125.694Z" fill="#2F2E41"/>
<path d="M105.805 62.3786C105.805 66.7886 112.347 74.5331 113.782 70.3636C115.539 65.2589 119.287 62.023 121.76 62.3786C126.121 63.0057 118.188 54.3936 113.782 54.3936C111.667 54.3936 109.638 55.2348 108.142 56.7323C106.646 58.2298 105.805 60.2608 105.805 62.3786Z" fill="#E6E6E6"/>
<path d="M104.129 37.3714C103.095 41.6581 107.701 45.3564 112.106 45.3564C113.154 45.3564 114.191 45.1499 115.159 44.7486C116.127 44.3473 117.006 43.7591 117.747 43.0176C118.488 42.2762 119.075 41.3959 119.476 40.4271C119.877 39.4583 120.084 38.42 120.084 37.3714C120.084 32.9614 114.145 33.2956 112.106 29.3863C109.772 24.9111 106.353 28.1569 104.129 37.3714Z" fill="#E6E6E6"/>
<path d="M67.2651 37.0361C67.2651 39.1538 68.1056 41.1849 69.6016 42.6823C71.0976 44.1798 73.1267 45.0211 75.2424 45.0211C79.6481 45.0211 83.3477 41.4442 83.2196 37.0361C82.9514 27.8015 79.3774 24.183 75.2424 29.051C72.3885 32.4108 67.2651 32.6261 67.2651 37.0361Z" fill="#E6E6E6"/>
<path d="M66.5952 62.3786C62.8723 60.7676 69.338 69.0234 74.5724 70.3636C78.8407 71.4565 82.5496 66.7886 82.5496 62.3786C82.5496 61.33 82.3433 60.2916 81.9424 59.3228C81.5415 58.3541 80.9539 57.4738 80.2132 56.7323C79.4724 55.9908 78.593 55.4027 77.6252 55.0014C76.6573 54.6001 75.62 54.3936 74.5724 54.3936C70.1667 54.3936 70.6392 64.1285 66.5952 62.3786Z" fill="#E6E6E6"/>
<path d="M156.36 10.8111H26.0858C25.9503 10.8082 25.8213 10.7523 25.7265 10.6553C25.6317 10.5584 25.5786 10.4281 25.5786 10.2925C25.5786 10.1568 25.6317 10.0266 25.7265 9.92965C25.8213 9.83272 25.9503 9.77682 26.0858 9.77393H156.36C156.496 9.77682 156.625 9.83272 156.72 9.92965C156.814 10.0266 156.867 10.1568 156.867 10.2925C156.867 10.4281 156.814 10.5584 156.72 10.6553C156.625 10.7523 156.496 10.8082 156.36 10.8111Z" fill="#CACACA"/>
<path d="M34.9541 7.1262C36.6309 7.1262 37.9902 5.73524 37.9902 4.0194C37.9902 2.30356 36.6309 0.912598 34.9541 0.912598C33.2773 0.912598 31.918 2.30356 31.918 4.0194C31.918 5.73524 33.2773 7.1262 34.9541 7.1262Z" fill="#3F3D56"/>
<path d="M45.4424 7.1262C47.1192 7.1262 48.4785 5.73524 48.4785 4.0194C48.4785 2.30356 47.1192 0.912598 45.4424 0.912598C43.7656 0.912598 42.4062 2.30356 42.4062 4.0194C42.4062 5.73524 43.7656 7.1262 45.4424 7.1262Z" fill="#3F3D56"/>
<path d="M55.9306 7.1262C57.6074 7.1262 58.9667 5.73524 58.9667 4.0194C58.9667 2.30356 57.6074 0.912598 55.9306 0.912598C54.2538 0.912598 52.8945 2.30356 52.8945 4.0194C52.8945 5.73524 54.2538 7.1262 55.9306 7.1262Z" fill="#3F3D56"/>
<path d="M150.045 1.68262H142.595C142.447 1.68554 142.307 1.74632 142.203 1.8519C142.1 1.95748 142.042 2.09944 142.042 2.2473C142.042 2.39516 142.1 2.53712 142.203 2.64269C142.307 2.74827 142.447 2.80905 142.595 2.81198H150.045C150.193 2.80905 150.334 2.74827 150.437 2.64269C150.541 2.53712 150.599 2.39516 150.599 2.2473C150.599 2.09944 150.541 1.95748 150.437 1.8519C150.334 1.74632 150.193 1.68554 150.045 1.68262Z" fill="#3F3D56"/>
<path d="M150.046 3.80225H142.595C142.448 3.80519 142.307 3.86597 142.204 3.97155C142.1 4.07713 142.042 4.21908 142.042 4.36692C142.042 4.51477 142.1 4.65672 142.204 4.7623C142.307 4.86787 142.448 4.92866 142.595 4.9316H150.046C150.194 4.92866 150.334 4.86787 150.438 4.7623C150.541 4.65672 150.599 4.51477 150.599 4.36692C150.599 4.21908 150.541 4.07713 150.438 3.97155C150.334 3.86597 150.194 3.80519 150.046 3.80225Z" fill="#3F3D56"/>
<path d="M150.046 5.91919H142.595C142.448 5.92213 142.307 5.98292 142.204 6.0885C142.1 6.19407 142.042 6.33602 142.042 6.48387C142.042 6.63171 142.1 6.77366 142.204 6.87924C142.307 6.98482 142.448 7.04561 142.595 7.04855H150.046C150.194 7.04561 150.334 6.98482 150.438 6.87924C150.541 6.77366 150.599 6.63171 150.599 6.48387C150.599 6.33602 150.541 6.19407 150.438 6.0885C150.334 5.98292 150.194 5.92213 150.046 5.91919Z" fill="#3F3D56"/>
<path d="M112.889 33.7473H102.219C101.997 33.7473 101.778 33.791 101.573 33.876C101.368 33.9609 101.182 34.0854 101.025 34.2424C100.868 34.3993 100.744 34.5857 100.659 34.7908C100.574 34.9959 100.53 35.2157 100.53 35.4376V46.1185C100.53 46.5668 100.708 46.9968 101.025 47.3138C101.342 47.6308 101.771 47.8089 102.219 47.8089H112.889C113.337 47.8089 113.767 47.6308 114.083 47.3138C114.4 46.9968 114.578 46.5668 114.578 46.1185V35.4376C114.578 34.9893 114.4 34.5594 114.083 34.2424C113.767 33.9254 113.337 33.7473 112.889 33.7473ZM110.886 37.3533H109.662C108.827 37.3533 108.664 37.7493 108.664 38.3339V39.5736H110.657L110.398 41.52H108.66V46.5954C107.917 46.735 107.155 46.7332 106.413 46.5901V41.52H104.819V39.5736H106.442V38.1341C106.442 36.4134 107.636 35.4735 109.174 35.4735C109.914 35.4735 110.705 35.529 110.886 35.5549V37.3533Z" fill="#5382AD"/>
<path d="M86.199 33.7473H75.5286C75.0807 33.7473 74.6511 33.9254 74.3345 34.2424C74.0178 34.5594 73.8398 34.9893 73.8398 35.4376V46.1185C73.8398 46.5668 74.0178 46.9968 74.3345 47.3138C74.6511 47.6308 75.0807 47.8089 75.5286 47.8089H86.199C86.6469 47.8089 87.0764 47.6308 87.3931 47.3138C87.7098 46.9968 87.8877 46.5668 87.8877 46.1185V35.4376C87.8877 34.9893 87.7098 34.5594 87.3931 34.2424C87.0764 33.9254 86.6468 33.7473 86.199 33.7473ZM80.8637 44.5278C80.1228 44.5278 79.3986 44.3079 78.7825 43.8959C78.1665 43.4839 77.6863 42.8982 77.4028 42.2131C77.1193 41.5279 77.0451 40.7739 77.1896 40.0466C77.3342 39.3192 77.691 38.651 78.2149 38.1266C78.7388 37.6022 79.4062 37.2451 80.1329 37.1004C80.8596 36.9557 81.6128 37.03 82.2973 37.3138C82.9818 37.5976 83.5669 38.0782 83.9785 38.6948C84.3901 39.3115 84.6098 40.0365 84.6098 40.7781C84.6098 41.7726 84.2152 42.7263 83.5126 43.4296C82.8101 44.1328 81.8573 44.5278 80.8637 44.5278ZM85.0781 37.0283C84.8929 37.0283 84.7118 36.9734 84.5578 36.8704C84.4038 36.7674 84.2837 36.6209 84.2129 36.4496C84.142 36.2784 84.1234 36.0899 84.1596 35.908C84.1957 35.7262 84.2849 35.5591 84.4159 35.428C84.5468 35.2969 84.7137 35.2076 84.8954 35.1715C85.0771 35.1353 85.2654 35.1539 85.4365 35.2248C85.6076 35.2958 85.7539 35.4159 85.8568 35.5701C85.9597 35.7243 86.0146 35.9055 86.0146 36.0909C86.0146 36.3395 85.9159 36.578 85.7403 36.7538C85.5647 36.9296 85.3265 37.0283 85.0781 37.0283Z" fill="#5382AD"/>
<path d="M115.46 58.9748C115.765 58.977 116.065 59.0459 116.34 59.1767C116.614 59.3075 116.857 59.497 117.051 59.7319C117.245 59.9668 117.385 60.2414 117.461 60.5363C117.537 60.8311 117.548 61.1392 117.492 61.4386L121.479 64.0353L120.493 66.8453L114.915 63.0991C114.418 62.9724 113.986 62.6677 113.699 62.2429C113.412 61.8181 113.29 61.3027 113.357 60.7944C113.425 60.286 113.676 59.82 114.064 59.4846C114.451 59.1492 114.948 58.9679 115.46 58.9748Z" fill="#FFB6B6"/>
<path d="M116.88 65.8029L119.726 62.5144L123.403 64.2212L130.916 70.2066C131.901 70.3218 139.375 71.2873 139.238 74.0349C139.235 74.356 139.162 74.6725 139.025 74.9628C138.888 75.2531 138.689 75.5102 138.443 75.7165C137.264 76.6912 135.219 76.4146 135.143 76.4033L130.252 76.1583C129.996 76.22 127.34 76.8306 125.935 75.9569C125.509 75.6917 116.88 65.8029 116.88 65.8029Z" fill="#3F3D56"/>
<path d="M125.087 149.799L122.756 149.798L121.647 140.801H125.087L125.087 149.799Z" fill="#FFB6B6"/>
<path d="M125.681 152.06L118.166 152.06V151.965C118.166 151.188 118.474 150.444 119.023 149.895C119.571 149.346 120.315 149.037 121.091 149.037L122.464 147.995L125.025 149.037L125.681 149.037L125.681 152.06Z" fill="#2F2E41"/>
<path d="M150.666 147.973L148.42 148.594L144.958 140.216L148.273 139.3L150.666 147.973Z" fill="#FFB6B6"/>
<path d="M151.841 149.994L144.597 151.997L144.572 151.905C144.365 151.157 144.464 150.357 144.847 149.681C145.23 149.006 145.865 148.51 146.612 148.304L147.658 146.933L150.404 147.255L151.037 147.08L151.841 149.994Z" fill="#2F2E41"/>
<path d="M125.189 95.3438L142.799 96.2431L142.805 96.2591C143.86 99.1921 144.106 102.355 143.518 105.417L144.057 109.913L146.753 123.943L150.347 141.931C150.347 141.931 155.019 143.19 148.909 145.348C142.799 147.507 144.057 146.247 144.956 144.629C145.854 143.01 140.553 124.753 140.553 124.753L134.084 110.183L127.795 125.292L127.076 142.021C127.076 142.021 128.963 144.269 123.572 145.168C118.181 146.068 118.451 144.359 119.708 143.1C120.966 141.841 122.044 125.113 122.044 125.113L123.302 109.284C123.302 109.284 122.943 100.11 125.189 95.3438Z" fill="#2F2E41"/>
<path d="M142.409 74.7939L140.993 71.0765L136.433 66.5812L130.658 66.1274L126.414 69.931L125.214 73.7147C126.788 81.0102 126.756 87.7294 124.526 94.239C124.367 94.689 124.309 95.1682 124.354 95.6432C124.4 96.1181 124.549 96.5774 124.79 96.989C125.031 97.4005 125.359 97.7545 125.751 98.0261C126.143 98.2978 126.589 98.4806 127.059 98.5618C133.601 99.6622 145.782 101.312 144.943 98.1711C143.833 94.0159 139.972 85.0723 141.402 80.3432C141.923 78.7 142.25 77.0018 142.378 75.2828L142.409 74.7939Z" fill="#3F3D56"/>
<path d="M132.575 64.6769C135.421 64.6769 137.729 62.3672 137.729 59.518C137.729 56.6688 135.421 54.3591 132.575 54.3591C129.728 54.3591 127.421 56.6688 127.421 59.518C127.421 62.3672 129.728 64.6769 132.575 64.6769Z" fill="#FFB6B6"/>
<path d="M131.168 64.4057L135.097 64.2052C135.6 64.1795 136.15 64.135 136.516 63.7882C136.713 63.5741 136.864 63.3222 136.961 63.0477C137.324 62.2033 137.688 61.3588 138.041 60.5104C138.531 59.3369 139.012 58.0978 138.887 56.8323C138.858 56.2543 138.615 55.7078 138.207 55.298C137.999 55.1006 137.731 54.9778 137.446 54.9488C137.16 54.9199 136.873 54.9864 136.629 55.138C136.569 54.7377 136.418 54.3564 136.189 54.023C135.959 53.6896 135.657 53.4128 135.305 53.2134C134.594 52.8203 133.782 52.648 132.973 52.7186C131.799 52.7943 130.678 53.2365 129.768 53.983C129.512 54.2194 129.239 54.4362 128.951 54.6316C128.806 54.7287 128.642 54.7951 128.471 54.8269C128.299 54.8587 128.123 54.8551 127.953 54.8164C127.784 54.7713 127.638 54.6667 127.54 54.5218C127.443 54.377 127.401 54.2017 127.423 54.0284C127.146 54.2355 126.956 54.5383 126.89 54.8778C126.825 55.2173 126.888 55.5691 127.067 55.8647C126.863 55.9502 126.641 55.9815 126.421 55.9555C126.201 55.9294 125.992 55.8471 125.814 55.7163C125.623 55.8112 125.454 55.945 125.317 56.1092C125.181 56.2733 125.08 56.4642 125.022 56.6695C124.963 56.8749 124.948 57.0902 124.978 57.3017C125.007 57.5132 125.08 57.7162 125.193 57.8977C125.305 58.0792 125.454 58.2353 125.63 58.3558C125.806 58.4764 126.005 58.5588 126.215 58.5978C126.425 58.6368 126.64 58.6315 126.848 58.5823C127.056 58.5331 127.251 58.441 127.421 58.312C127.659 58.6463 127.57 59.1006 127.539 59.5101C127.508 59.9197 127.618 60.4287 128.012 60.5419C128.546 60.6949 128.978 59.9762 129.532 59.9838C129.669 59.995 129.801 60.0398 129.916 60.1142C130.032 60.1886 130.127 60.2904 130.194 60.4105C130.324 60.6519 130.414 60.9134 130.459 61.1843L131.168 64.3834" fill="#2F2E41"/>
<path d="M104.854 72.6141C102.891 72.6154 100.971 72.0456 99.3262 70.9741L98.4985 70.4356L99.4796 70.5445C99.7366 70.5731 100.014 70.5898 100.302 70.5939C101.625 70.5949 102.92 70.214 104.031 69.497C103.371 69.3537 102.759 69.0402 102.256 68.5877C101.754 68.1351 101.378 67.559 101.167 66.9165L101.044 66.5375L101.434 66.6142C101.612 66.6493 101.792 66.6696 101.973 66.6748C101.354 66.356 100.834 65.873 100.471 65.2786C100.108 64.6842 99.9146 64.0013 99.9129 63.3045V62.9031L100.262 63.0576C100.469 63.1742 100.688 63.2676 100.916 63.3359C100.378 62.7313 100.043 61.9724 99.9606 61.1669C99.8778 60.3613 100.051 59.5501 100.455 58.8485L100.625 58.5539L100.839 58.8183C102.398 60.749 104.631 62.0146 107.088 62.3586C107.155 62.3683 107.224 62.3632 107.289 62.3437C107.354 62.3242 107.414 62.2908 107.465 62.2458C107.517 62.2004 107.559 62.1443 107.588 62.0812C107.617 62.0182 107.631 61.9498 107.631 61.8805C107.626 61.1313 107.843 60.3973 108.256 59.7721C108.668 59.147 109.257 58.6589 109.948 58.3703C110.639 58.0816 111.4 58.0053 112.134 58.1512C112.868 58.297 113.542 58.6584 114.07 59.1893C114.793 59.0314 115.486 58.759 116.123 58.3823L116.661 58.0637L116.465 58.6574C116.283 59.2082 115.979 59.7103 115.575 60.1256C115.933 60.0321 116.284 59.9102 116.624 59.761L117.352 59.4406L116.913 60.1048C116.448 60.8094 115.867 61.4302 115.195 61.9407V62.2794C115.195 67.3596 111.335 72.6141 104.875 72.6141L104.854 72.6141Z" fill="#5382AD"/>
<path d="M109.482 68.9969C109.786 68.9844 110.089 69.0387 110.369 69.1561C110.65 69.2735 110.902 69.4511 111.107 69.6764C111.312 69.9017 111.464 70.1692 111.555 70.46C111.645 70.7509 111.671 71.058 111.63 71.3598L115.737 73.7612L114.888 76.6154L109.135 73.1428C108.633 73.0401 108.186 72.7567 107.879 72.3462C107.572 71.9358 107.426 71.4268 107.469 70.9158C107.511 70.4048 107.74 69.9272 108.111 69.5735C108.482 69.2198 108.97 69.0147 109.482 68.9969Z" fill="#FFB6B6"/>
<path d="M114.318 77.9576L111.25 74.6347L113.377 71.4523L115.668 73.3771L118.174 73.9773L121.71 75.3192C122.202 74.4575 126.022 67.9544 128.493 69.1587C128.786 69.2878 129.049 69.479 129.262 69.7192C129.475 69.9593 129.633 70.2428 129.726 70.5501C130.159 72.0186 129.103 73.7925 129.063 73.8584L126.919 78.2659C126.875 78.5258 126.395 81.2101 125.04 82.1614C124.849 82.3015 124.63 82.4002 124.399 82.4514C124.167 82.5026 123.928 82.5052 123.695 82.4588C119.487 81.6622 116.522 80.4301 115.008 78.8631C114.742 78.5909 114.51 78.2868 114.318 77.9576Z" fill="#3F3D56"/>
<path d="M59.7521 65.1111C59.28 64.0944 60.0294 62.9595 60.2968 61.865C60.7958 59.8228 59.3897 57.6118 57.4837 56.9042C55.5778 56.1966 53.3876 56.788 51.7503 58.0263C50.1454 59.2401 49.0171 59.812 47.9115 61.5271C47.5408 62.1022 47.1482 63.8879 47.0781 64.5768C47.0079 65.2656 47.3639 66.0549 48.013 66.206C47.9508 66.3289 47.9235 66.4665 47.9341 66.6038C47.9446 66.7412 47.9926 66.873 48.0728 66.985C48.1529 67.0969 48.2623 67.1848 48.3889 67.2388C48.5154 67.2929 48.6544 67.3112 48.7906 67.2917C50.0331 67.0515 52.315 67.7119 52.315 67.7119C54.4425 67.8338 56.57 67.9557 58.6976 68.0776C59.2427 68.1088 59.8084 68.1372 60.2982 67.8357C60.4337 67.7563 60.5504 67.6485 60.6404 67.5197C60.7303 67.3908 60.7913 67.244 60.8192 67.0894C60.9437 66.2827 60.0776 65.812 59.7521 65.1111Z" fill="#2F2E41"/>
<path d="M61.3587 74.0062L60.8932 77.108L60.1549 82.0224L60.0298 83.8432L59.111 97.1886L56.5806 99.137C55.1155 100.265 53.2868 100.814 51.4434 100.678C49.5999 100.543 47.8708 99.733 46.5859 98.4029L43.5132 96.9221C45.16 95.3004 44.8537 87.7846 44.8537 87.7846L44.8353 73.0229L49.0005 71.6208L50.3725 68.9172H55.2944L56.5249 71.7912L58.7582 72.8135L59.7754 73.2815L61.3587 74.0062Z" fill="#E6E6E6"/>
<path d="M53.037 67.5306C55.3354 67.5306 57.1985 65.6656 57.1985 63.3651C57.1985 61.0645 55.3354 59.1995 53.037 59.1995C50.7387 59.1995 48.8755 61.0645 48.8755 63.3651C48.8755 65.6656 50.7387 67.5306 53.037 67.5306Z" fill="#9E616A"/>
<path d="M50.659 62.0586C49.5596 62.0604 48.4865 61.7215 47.5872 61.0885L47.5571 61.0674C47.5571 60.5353 47.6618 60.0085 47.8653 59.5169C48.0687 59.0253 48.3668 58.5786 48.7427 58.2024C49.1186 57.8261 49.5648 57.5277 50.0559 57.3241C50.5471 57.1204 51.0734 57.0156 51.605 57.0156H53.2573C53.7854 57.0162 54.3082 57.1211 54.7957 57.3242C55.2832 57.5273 55.726 57.8246 56.0986 58.1992C56.4712 58.5738 56.7663 59.0182 56.967 59.5072C57.1678 59.9961 57.2702 60.5198 57.2685 61.0484C57.2651 61.2897 57.1677 61.5201 56.9971 61.6905C56.8265 61.861 56.5961 61.9581 56.3551 61.9611L50.7539 62.0577C50.7223 62.0583 50.6906 62.0586 50.659 62.0586Z" fill="#2F2E41"/>
<path d="M62.8407 82.5698L59.0711 82.6007L58.7941 89.3166L55.7313 93.0699C55.3588 93.1327 55.0108 93.2974 54.7258 93.5457C54.4408 93.794 54.23 94.1164 54.1165 94.4771C54.0031 94.8379 53.9915 95.223 54.083 95.5899C54.1745 95.9569 54.3655 96.2914 54.635 96.5565C54.9045 96.8216 55.2419 97.0069 55.61 97.0921C55.9782 97.1773 56.3626 97.1589 56.721 97.0391C57.0794 96.9193 57.3977 96.7027 57.6408 96.4131C57.8839 96.1236 58.0423 95.7724 58.0985 95.3985L62.3177 89.5439L62.8407 82.5698Z" fill="#9E616A"/>
<path d="M42.9649 82.7708L39.1007 80.9626L34.8812 86.1916L30.1875 87.3798C29.8509 87.2081 29.4734 87.1328 29.0967 87.1623C28.72 87.1919 28.3588 87.325 28.053 87.5472C27.7472 87.7693 27.5087 88.0717 27.3638 88.4209C27.2188 88.7702 27.1732 89.1528 27.2319 89.5264C27.2906 89.9 27.4513 90.2501 27.6963 90.538C27.9412 90.826 28.261 91.0405 28.6201 91.158C28.9793 91.2754 29.3638 91.2912 29.7314 91.2036C30.099 91.1161 30.4352 90.9285 30.7029 90.6616L37.5761 88.4753L42.9649 82.7708Z" fill="#9E616A"/>
<path d="M55.1193 67.2093L56.5601 65.4101C56.7156 65.2524 56.8169 65.0492 56.8491 64.83C56.8567 64.61 56.6497 64.3746 56.4409 64.4435C56.2471 64.5074 55.1304 61.707 54.9264 61.7076C54.7149 61.7082 54.6459 61.4259 54.6432 61.2143C54.633 60.4121 55.2844 61.2735 55.4998 60.5008C55.7151 59.728 56.5545 60.3924 57.278 60.0473C58.0015 59.7022 58.9845 59.859 59.4318 60.5246C59.7634 61.0182 59.7511 61.6595 59.7071 62.2526C59.605 63.6291 59.3981 64.9958 59.0882 66.3407C59.012 66.6711 58.8987 67.0403 58.5946 67.1895C58.4272 67.2559 58.2468 67.2829 58.0673 67.2684L55.8489 67.2574" fill="#2F2E41"/>
<path d="M58.5757 59.4743C59.7083 59.4743 60.6265 58.5552 60.6265 57.4215C60.6265 56.2877 59.7083 55.3687 58.5757 55.3687C57.4431 55.3687 56.5249 56.2877 56.5249 57.4215C56.5249 58.5552 57.4431 59.4743 58.5757 59.4743Z" fill="#2F2E41"/>
<path d="M63.1879 82.5048C62.9664 82.8907 62.4947 83.0447 62.064 83.1637C61.4816 83.3259 61.3114 83.4901 60.7289 83.6523C60.4972 83.718 60.2634 83.7837 60.0296 83.8432C59.6458 83.9467 59.2562 84.0269 58.8627 84.0834C58.5325 84.1306 58.1429 84.1306 57.9275 83.874C57.7847 83.6536 57.7271 83.3887 57.7655 83.1288C57.8496 79.9757 57.9344 76.8226 58.0198 73.6695L58.1982 73.7311C58.2786 73.678 58.3622 73.63 58.4485 73.5874C58.859 73.378 59.3146 73.273 59.7753 73.2815C60.0389 73.2836 60.3008 73.3244 60.5526 73.4026C60.9435 73.5268 61.3026 73.7347 61.6051 74.012C61.9075 74.2892 62.146 74.6291 62.304 75.0079C62.5085 75.5798 62.6058 76.1845 62.5911 76.7918C62.5931 76.8842 62.5931 76.9766 62.5952 77.0689C62.6075 77.8572 62.2076 78.6455 62.2199 79.4338C62.2105 79.6557 62.2411 79.8775 62.3101 80.0886C62.3921 80.298 62.5521 80.4725 62.6136 80.6901C62.6752 80.9056 62.5747 81.2012 62.3511 81.2177C62.509 81.2008 62.6685 81.228 62.812 81.2963C62.9554 81.3645 63.0772 81.4712 63.1638 81.6044C63.2504 81.7377 63.2985 81.8923 63.3027 82.0512C63.307 82.2101 63.2672 82.3671 63.1879 82.5048Z" fill="#E6E6E6"/>
<path d="M44.8528 73.0408C45.2629 73.0655 45.6625 73.1805 46.0231 73.3776C46.3837 73.5747 46.6963 73.8491 46.9388 74.1811C47.1812 74.5131 47.3474 74.8946 47.4256 75.2983C47.5038 75.7021 47.4919 76.1181 47.391 76.5167C47.1765 77.1827 46.8396 77.8026 46.3974 78.3445L45.0191 80.2649C44.8792 80.437 44.7716 80.633 44.7015 80.8435C44.6435 81.0612 44.6664 81.2973 44.587 81.5082C44.5076 81.719 44.2518 81.8959 44.0618 81.775C44.1986 81.8556 44.3105 81.9726 44.3851 82.1129C44.4597 82.2532 44.4941 82.4114 44.4846 82.5701C44.475 82.7287 44.4218 82.8817 44.3308 83.012C44.2399 83.1423 44.1147 83.2449 43.9692 83.3084C43.5602 83.4871 43.0904 83.3277 42.6736 83.168L40.9809 82.5196C40.3789 82.3046 39.7922 82.0486 39.2251 81.7536C38.9321 81.5926 38.6194 81.3608 38.5985 81.0268C38.5823 80.7669 38.8019 80.5672 38.912 80.3313C40.2906 77.3769 42.3177 75.0261 44.8356 73.0229L44.8528 73.0408Z" fill="#E6E6E6"/>
<path d="M46.8329 90.8251C46.8329 89.1731 45.6166 87.8421 44.0953 87.8421C42.0577 87.7442 39.985 87.709 37.8653 87.709H37.2043C35.0886 87.709 33.008 87.7442 30.9743 87.8421C29.4765 87.8421 28.2602 89.177 28.2602 90.8329C28.1663 92.1443 28.1272 93.4518 28.1311 94.7476C28.135 96.0434 28.1663 97.3665 28.2563 98.6623C28.2563 100.318 29.4725 101.661 30.9704 101.661C33.1058 101.759 35.2997 101.802 37.5289 101.802C39.7581 101.802 41.9482 101.763 44.0914 101.661C45.5931 101.661 46.829 100.318 46.829 98.6623C46.915 97.3509 46.958 96.0434 46.9541 94.728C46.9502 93.4127 46.9189 92.113 46.8328 90.8133L46.8329 90.8251ZM35.7534 98.3687V91.1422L41.08 94.7515L35.7534 98.3687Z" fill="#5382AD"/>
<path d="M185.598 152.824L1.28088 152.913C1.1905 152.912 1.1039 152.876 1.04008 152.812C0.976261 152.748 0.94043 152.661 0.94043 152.571C0.94043 152.48 0.976261 152.394 1.04008 152.33C1.1039 152.265 1.1905 152.229 1.28088 152.229L185.598 152.141C185.688 152.141 185.775 152.177 185.839 152.241C185.903 152.305 185.938 152.392 185.938 152.483C185.938 152.573 185.903 152.66 185.839 152.724C185.775 152.788 185.688 152.824 185.598 152.824Z" fill="#CACACA"/>
</g>
<defs>
<clipPath id="clip0_177_71">
<rect width="185" height="152" fill="white" transform="translate(0.939453 0.912598)"/>
</clipPath>
</defs>
</svg>
